<?xml version="1.0" encoding="utf-8"?>
<!-- Generator: Adobe Illustrator 22.1.0, SVG Export Plug-In . SVG Version: 6.00 Build 0)  -->
<svg version="1.1" id="Calque_1" xmlns="http://www.w3.org/2000/svg" xmlns:xlink="http://www.w3.org/1999/xlink" x="0px" y="0px"
	 viewBox="0 0 209.8 102" style="enable-background:new 0 0 209.8 102;" xml:space="preserve">
<g>
	<path d="M35,89.8c-2.4-0.4-2.9-0.9-2.9-1.5c0-0.8,0.8-1.2,1.8-1.2c1.1,0,1.8,0.5,2.1,1.2c0.1,0.2,0.2,0.2,0.3,0.2h2.4
		c0.2,0,0.2-0.1,0.2-0.2c-0.2-2.1-2.1-3.7-5-3.7c-2.3,0-4.8,1-4.8,3.7c0,1.8,1.3,3,4.2,3.5c2.3,0.4,3,0.9,3,1.5c0,0.8-1,1.2-2.1,1.2
		c-1.2,0-2.3-0.5-2.5-1.7c0-0.2-0.1-0.2-0.2-0.2h-2.4c-0.2,0-0.2,0.1-0.2,0.2c0.2,2.6,2.2,4.2,5.3,4.2c3,0,5.1-1.6,5.1-3.8
		C39.3,91.2,37.6,90.3,35,89.8z"/>
	<path d="M47.7,84.7c-1.4,0-2.5,0.5-3.5,1.2v-0.7c0-0.2-0.1-0.2-0.2-0.2h-2.4c-0.2,0-0.2,0.1-0.2,0.2v16.3c0,0.2,0.1,0.2,0.2,0.2H44
		c0.2,0,0.2-0.1,0.2-0.2V96c1,0.8,2.1,1.2,3.5,1.2c3.2,0,5.5-2.4,5.5-6.3C53.1,87.1,50.9,84.7,47.7,84.7z M47.1,94.6
		c-1.9,0-3-1.6-3-3.7c0-2.1,1.1-3.7,3-3.7s3,1.6,3,3.7C50.1,93,49,94.6,47.1,94.6z"/>
	<path d="M194.3,84.7c-1.5,0-2.6,0.5-3.6,1.3v-0.9c0-0.2-0.1-0.2-0.2-0.2H188c-0.2,0-0.2,0.1-0.2,0.2v11.6c0,0.2,0.1,0.2,0.2,0.2
		h2.4c0.2,0,0.2-0.1,0.2-0.2v-5.4c0-2.9,1.4-4,2.9-4c1.3,0,2.1,0.7,2.1,2.5v7c0,0.2,0.1,0.2,0.2,0.2h2.4c0.2,0,0.2-0.1,0.2-0.2v-8
		C198.5,86.2,196.9,84.7,194.3,84.7z"/>
	<path d="M184.9,94.5v-5.2c0-2.9-2-4.6-5.1-4.6c-2.9,0-4.7,1.6-5.1,3.6c0,0.1,0,0.2,0,0.2c0,0.1,0.1,0.1,0.2,0.1h2.4
		c0.1,0,0.2,0,0.3-0.2c0.4-0.7,1.1-1.1,2.2-1.1c1.5,0,2.2,0.8,2.2,2v0.3c-0.9-0.2-1.9-0.5-3-0.5c-2.6,0-4.8,1.4-4.8,4
		c0,2.5,1.9,4,4.4,4c1.8,0,2.7-0.6,3.4-1.2v0.7c0,0.2,0.1,0.2,0.2,0.2h2.9c0.2,0,0.3-0.1,0.2-0.2C185,96.1,184.9,95.6,184.9,94.5z
		 M179.1,94.6c-1.3,0-2.1-0.6-2.1-1.5c0-1,1-1.5,2.2-1.5c1.1,0,1.8,0.2,2.8,0.5C182,93.6,180.6,94.6,179.1,94.6z"/>
	<path d="M159.2,84.9h-2.4c-0.2,0-0.2,0.1-0.2,0.2v11.6c0,0.2,0.1,0.2,0.2,0.2h2.4c0.2,0,0.2-0.1,0.2-0.2V85.2
		C159.5,85,159.4,84.9,159.2,84.9z"/>
	<path d="M131.5,84.7c-3.4,0-6.2,2.5-6.2,6.3c0,3.7,2.7,6.3,6.2,6.3c2.9,0,4.8-1.2,5.9-3.9c0-0.1,0-0.2,0-0.2c0-0.1,0-0.2-0.2-0.2
		h-2.4c-0.2,0-0.2,0-0.3,0.2c-0.6,1-1.6,1.5-3,1.5c-1.8,0-2.9-1.2-3.2-2.8h9.1c0.2,0,0.2-0.1,0.2-0.2v-0.4
		C137.7,87.7,135.4,84.7,131.5,84.7z M128.4,89.5c0.5-1.4,1.7-2.2,3.1-2.2c1.7,0,2.7,0.9,3.1,2.2H128.4z"/>
	<path d="M209.3,94.2c0,0-0.1,0-0.2,0c-0.8,0.3-1.4,0.4-2.1,0.4c-1.2,0-1.7-0.7-1.7-2v-5.1h3.6c0.2,0,0.2-0.1,0.2-0.2v-2.1
		c0-0.2-0.1-0.2-0.2-0.2h-3.6v-3.5c0-0.2-0.1-0.2-0.2-0.2h-2.4c-0.2,0-0.2,0.1-0.2,0.2v3.5h-2.1c-0.2,0-0.2,0.1-0.2,0.2v2.1
		c0,0.2,0.1,0.2,0.2,0.2h2.1v5.7c0,2.7,1.7,4,4,4c0.9,0,2.1-0.1,2.8-0.4c0.2-0.1,0.2-0.2,0.2-0.4v-2
		C209.4,94.3,209.4,94.2,209.3,94.2z"/>
	<path d="M173.1,84.9h-2.5c-0.2,0-0.3,0.1-0.3,0.2l-2.8,8.1l-2.8-8.1c0-0.2-0.2-0.2-0.3-0.2h-2.5c-0.1,0-0.2,0.1-0.2,0.2
		c0,0,0,0.1,0,0.2l4.3,11.4c0.1,0.2,0.2,0.2,0.3,0.2h2.6c0.1,0,0.2-0.1,0.3-0.2l4.3-11.4c0-0.1,0-0.1,0-0.2
		C173.3,85,173.3,84.9,173.1,84.9z"/>
	<path d="M154.6,84.9h-2.5c-0.2,0-0.3,0.1-0.3,0.2l-2.8,8.1l-2.8-8.1c0-0.2-0.2-0.2-0.3-0.2h-2.5c-0.1,0-0.2,0.1-0.2,0.2
		c0,0,0,0.1,0,0.2l4.3,11.4c0.1,0.2,0.2,0.2,0.3,0.2h2.6c0.1,0,0.2-0.1,0.3-0.2l4.3-11.4c0-0.1,0-0.1,0-0.2
		C154.8,85,154.8,84.9,154.6,84.9z"/>
	<path d="M159.4,80.2h-2.7c-0.2,0-0.2,0.1-0.2,0.2v2.7c0,0.2,0.1,0.2,0.2,0.2h2.7c0.2,0,0.2-0.1,0.2-0.2v-2.7
		C159.6,80.2,159.6,80.2,159.4,80.2z"/>
	<path d="M30,77.1h2.4c0.2,0,0.2-0.1,0.2-0.2v-0.7c0.9,0.7,2,1.2,3.5,1.2c3.2,0,5.5-2.4,5.5-6.3c0-3.9-2.2-6.3-5.5-6.3
		c-1.3,0-2.4,0.4-3.5,1.2v-5.5c0-0.2-0.1-0.2-0.2-0.2H30c-0.2,0-0.2,0.1-0.2,0.2v16.3C29.8,77.1,29.8,77.1,30,77.1z M35.5,67.4
		c1.9,0,3,1.6,3,3.7c0,2.1-1.1,3.7-3,3.7s-3-1.6-3-3.7C32.5,69,33.6,67.4,35.5,67.4z"/>
	<path d="M56.1,71.8v-0.4c0-3.5-2.3-6.5-6.2-6.5c-3.4,0-6.2,2.5-6.2,6.3c0,3.7,2.7,6.3,6.2,6.3c2.9,0,4.8-1.2,5.9-3.9
		c0-0.1,0-0.2,0-0.2c0-0.1,0-0.2-0.2-0.2h-2.4c-0.2,0-0.2,0-0.3,0.2c-0.6,1-1.6,1.5-3,1.5c-1.8,0-2.9-1.2-3.2-2.8h9.1
		C56,72,56.1,71.9,56.1,71.8z M46.8,69.6c0.5-1.4,1.7-2.2,3.1-2.2c1.7,0,2.7,0.9,3.1,2.2H46.8z"/>
	<path d="M106,72.1c0.2,0,0.2-0.1,0.2-0.2v-2.2c0-0.2-0.1-0.2-0.2-0.2h-9.4c-0.2,0-0.2,0.1-0.2,0.2v2.2c0,0.2,0.1,0.2,0.2,0.2H106z"
		/>
	<path d="M148.1,74.8c-1.2,0-2.3-0.5-2.5-1.7c0-0.2-0.1-0.2-0.2-0.2H143c-0.2,0-0.2,0.1-0.2,0.2c0.2,2.6,2.2,4.2,5.3,4.2
		c3,0,5.1-1.6,5.1-3.8c0-2.2-1.7-3.1-4.3-3.6c-2.4-0.4-2.9-0.9-2.9-1.5c0-0.8,0.8-1.2,1.8-1.2c1.1,0,1.8,0.5,2.1,1.2
		c0.1,0.2,0.2,0.2,0.3,0.2h2.4c0.2,0,0.2-0.1,0.2-0.2c-0.2-2.1-2.1-3.7-5-3.7c-2.3,0-4.8,1-4.8,3.7c0,1.8,1.3,3,4.2,3.5
		c2.3,0.4,3,0.9,3,1.5C150.3,74.4,149.3,74.8,148.1,74.8z"/>
	<path d="M62.9,69.3c-2.6,0-4.8,1.4-4.8,4c0,2.5,1.9,4,4.4,4c1.8,0,2.7-0.6,3.4-1.2v0.7c0,0.2,0.1,0.2,0.2,0.2H69
		c0.2,0,0.3-0.1,0.2-0.2c-0.3-0.6-0.5-1.2-0.5-2.2v-5.2c0-2.9-2-4.6-5.1-4.6c-2.9,0-4.7,1.6-5.1,3.6c0,0.1,0,0.2,0,0.2
		c0,0.1,0.1,0.1,0.2,0.1h2.4c0.1,0,0.2,0,0.3-0.2c0.4-0.7,1.1-1.1,2.2-1.1c1.5,0,2.2,0.8,2.2,2v0.3C65,69.6,64,69.3,62.9,69.3z
		 M63,74.8c-1.3,0-2.1-0.6-2.1-1.5c0-1,1-1.5,2.2-1.5c1.1,0,1.8,0.2,2.8,0.5C65.9,73.8,64.4,74.8,63,74.8z"/>
	<path d="M83.8,77c0,0.1,0,0.1,0.1,0.1h3c0.1,0,0.2-0.1,0.3-0.2l2.4-3.6l2.4,3.6c0.1,0.2,0.2,0.2,0.3,0.2h3c0.1,0,0.1,0,0.1-0.1
		c0-0.1,0-0.1-0.1-0.2l-4.2-6l3.7-5.4c0,0,0-0.1,0-0.1c0-0.1,0-0.2-0.2-0.2h-2.8c-0.1,0-0.2,0-0.3,0.2l-2.1,3.2l-2.1-3.2
		c-0.1-0.1-0.2-0.2-0.3-0.2h-2.8c-0.1,0-0.2,0-0.2,0.2c0,0,0,0.1,0,0.1l3.7,5.4l-4.1,6C83.9,76.9,83.8,76.9,83.8,77z"/>
	<path d="M74.1,65.1h-2.4c-0.2,0-0.2,0.1-0.2,0.2v8c0,2.5,1.6,4.1,4.2,4.1c1.5,0,2.6-0.5,3.6-1.3v0.9c0,0.2,0.1,0.2,0.2,0.2H82
		c0.2,0,0.2-0.1,0.2-0.2V65.3c0-0.2-0.1-0.2-0.2-0.2h-2.4c-0.2,0-0.2,0.1-0.2,0.2v5.4c0,2.9-1.4,4-2.9,4c-1.3,0-2.1-0.7-2.1-2.5v-7
		C74.4,65.1,74.3,65.1,74.1,65.1z"/>
	<path d="M137,61.4h-2.4c-0.2,0-0.2,0.1-0.2,0.2v3.5h-2.1c-0.2,0-0.2,0.1-0.2,0.2v2.1c0,0.2,0.1,0.2,0.2,0.2h2.1v5.7
		c0,2.7,1.7,4,4,4c0.9,0,2.1-0.1,2.8-0.4c0.2-0.1,0.2-0.2,0.2-0.4v-2c0-0.1,0-0.2-0.2-0.2c0,0-0.1,0-0.2,0c-0.8,0.3-1.4,0.4-2.1,0.4
		c-1.2,0-1.7-0.7-1.7-2v-5.1h3.6c0.2,0,0.2-0.1,0.2-0.2v-2.1c0-0.2-0.1-0.2-0.2-0.2h-3.6v-3.5C137.2,61.5,137.2,61.4,137,61.4z"/>
	<path d="M113.4,69.3c-2.6,0-4.8,1.4-4.8,4c0,2.5,1.9,4,4.4,4c1.8,0,2.7-0.6,3.4-1.2v0.7c0,0.2,0.1,0.2,0.2,0.2h2.9
		c0.2,0,0.3-0.1,0.2-0.2c-0.3-0.6-0.5-1.2-0.5-2.2v-5.2c0-2.9-2-4.6-5.1-4.6c-2.9,0-4.7,1.6-5.1,3.6c0,0.1,0,0.2,0,0.2
		c0,0.1,0.1,0.1,0.2,0.1h2.4c0.1,0,0.2,0,0.3-0.2c0.4-0.7,1.1-1.1,2.2-1.1c1.5,0,2.2,0.8,2.2,2v0.3
		C115.5,69.6,114.5,69.3,113.4,69.3z M113.5,74.8c-1.3,0-2.1-0.6-2.1-1.5c0-1,1-1.5,2.2-1.5c1.1,0,1.8,0.2,2.8,0.5
		C116.4,73.8,114.9,74.8,113.5,74.8z"/>
	<path d="M124.6,65.1h-2.4c-0.2,0-0.2,0.1-0.2,0.2v11.6c0,0.2,0.1,0.2,0.2,0.2h2.4c0.2,0,0.2-0.1,0.2-0.2v-6.2
		c0-2.5,1.1-3.2,2.6-3.2c0.7,0,1.4,0.2,2.5,0.7c0.1,0,0.1,0,0.2,0c0.1,0,0.2-0.1,0.2-0.3v-2.2c0-0.2,0-0.3-0.3-0.4
		c-0.7-0.2-1.4-0.4-2.2-0.4c-1.2,0-2.2,0.5-3,1.1v-0.6C124.9,65.1,124.8,65.1,124.6,65.1z"/>
	<path d="M44.9,43v-2.3c0-0.2-0.1-0.2-0.2-0.2H32.2c-0.2,0-0.2,0.1-0.2,0.2V43c0,0.2,0.1,0.2,0.2,0.2h4.7V57c0,0.2,0.1,0.2,0.2,0.2
		h2.5c0.2,0,0.2-0.1,0.2-0.2V43.3h4.7C44.8,43.3,44.9,43.2,44.9,43z"/>
	<path d="M49.9,57.5c3.7,0,6.4-2.6,6.4-6.3c0-3.6-2.8-6.3-6.4-6.3c-3.7,0-6.4,2.6-6.4,6.3C43.4,54.9,46.2,57.5,49.9,57.5z
		 M49.9,47.6c2,0,3.4,1.5,3.4,3.7c0,2.2-1.4,3.7-3.4,3.7c-2,0-3.4-1.5-3.4-3.7C46.5,49,47.9,47.6,49.9,47.6z"/>
	<path d="M11.9,40.5H9.5c-0.2,0-0.2,0.1-0.2,0.2v5.5c-1-0.8-2.1-1.2-3.5-1.2c-3.2,0-5.5,2.4-5.5,6.3c0,3.9,2.2,6.3,5.5,6.3
		c1.4,0,2.5-0.5,3.5-1.2V57c0,0.2,0.1,0.2,0.2,0.2h2.4c0.2,0,0.2-0.1,0.2-0.2V40.7C12.1,40.5,12.1,40.5,11.9,40.5z M6.4,54.9
		c-1.9,0-3-1.6-3-3.7c0-2.1,1.1-3.7,3-3.7s3,1.6,3,3.7C9.4,53.3,8.3,54.9,6.4,54.9z"/>
	<path d="M26.6,53.6c0-0.1,0-0.2,0-0.2c0-0.1,0-0.2-0.2-0.2h-2.4c-0.2,0-0.2,0-0.3,0.2c-0.6,1-1.6,1.5-3,1.5c-1.8,0-2.9-1.2-3.2-2.8
		h9.1c0.2,0,0.2-0.1,0.2-0.2v-0.4c0-3.5-2.3-6.5-6.2-6.5c-3.4,0-6.2,2.5-6.2,6.3c0,3.7,2.7,6.3,6.2,6.3
		C23.6,57.5,25.6,56.3,26.6,53.6z M20.8,47.6c1.7,0,2.7,0.9,3.1,2.2h-6.2C18.2,48.4,19.4,47.6,20.8,47.6z"/>
	<path d="M61.8,24.9h-2.4c-0.2,0-0.2,0.1-0.2,0.2v11.6c0,0.2,0.1,0.2,0.2,0.2h2.4c0.2,0,0.2-0.1,0.2-0.2v-6.2c0-2.5,1.1-3.2,2.6-3.2
		c0.7,0,1.4,0.2,2.5,0.7c0.1,0,0.1,0,0.2,0c0.1,0,0.2-0.1,0.2-0.3v-2.2c0-0.2,0-0.3-0.3-0.4c-0.7-0.2-1.4-0.4-2.2-0.4
		c-1.2,0-2.2,0.5-3,1.1v-0.6C62.1,25,62,24.9,61.8,24.9z"/>
	<path d="M50.7,29.2c-2.6,0-4.8,1.4-4.8,4c0,2.5,1.9,4,4.4,4c1.8,0,2.7-0.6,3.4-1.2v0.7c0,0.2,0.1,0.2,0.2,0.2h2.9
		c0.2,0,0.3-0.1,0.2-0.2c-0.3-0.6-0.5-1.2-0.5-2.2v-5.2c0-2.9-2-4.6-5.1-4.6c-2.9,0-4.7,1.6-5.1,3.6c0,0.1,0,0.2,0,0.2
		c0,0.1,0.1,0.1,0.2,0.1h2.4c0.1,0,0.2,0,0.3-0.2c0.4-0.7,1.1-1.1,2.2-1.1c1.5,0,2.2,0.8,2.2,2v0.3C52.7,29.4,51.7,29.2,50.7,29.2z
		 M50.7,34.6c-1.3,0-2.1-0.6-2.1-1.5c0-1,1-1.5,2.2-1.5c1.1,0,1.8,0.2,2.8,0.5C53.6,33.6,52.2,34.6,50.7,34.6z"/>
	<path d="M34.2,34.6c-1.2,0-2.3-0.5-2.5-1.7c0-0.2-0.1-0.2-0.2-0.2h-2.4c-0.2,0-0.2,0.1-0.2,0.2c0.2,2.6,2.2,4.2,5.3,4.2
		c3,0,5.1-1.6,5.1-3.8c0-2.2-1.7-3.1-4.3-3.6C32.5,29.4,32,29,32,28.4c0-0.8,0.8-1.2,1.8-1.2c1.1,0,1.8,0.5,2.1,1.2
		c0.1,0.2,0.2,0.2,0.3,0.2h2.4c0.2,0,0.2-0.1,0.2-0.2c-0.2-2.1-2.1-3.7-5-3.7c-2.3,0-4.8,1-4.8,3.7c0,1.8,1.3,3,4.2,3.5
		c2.3,0.4,3,0.9,3,1.5C36.3,34.2,35.4,34.6,34.2,34.6z"/>
	<path d="M11.9,20.2H9.5c-0.2,0-0.2,0.1-0.2,0.2v5.5c-1-0.8-2.1-1.2-3.5-1.2c-3.2,0-5.5,2.4-5.5,6.3c0,3.9,2.2,6.3,5.5,6.3
		c1.4,0,2.5-0.5,3.5-1.2v0.7c0,0.2,0.1,0.2,0.2,0.2h2.4c0.2,0,0.2-0.1,0.2-0.2V20.4C12.1,20.2,12.1,20.2,11.9,20.2z M6.4,34.6
		c-1.9,0-3-1.6-3-3.7c0-2.1,1.1-3.7,3-3.7s3,1.6,3,3.7C9.4,33,8.3,34.6,6.4,34.6z"/>
	<path d="M27,31.6v-0.4c0-3.5-2.3-6.5-6.2-6.5c-3.4,0-6.2,2.5-6.2,6.3c0,3.7,2.7,6.3,6.2,6.3c2.9,0,4.8-1.2,5.9-3.9
		c0-0.1,0-0.2,0-0.2c0-0.1,0-0.2-0.2-0.2h-2.4c-0.2,0-0.2,0-0.3,0.2c-0.6,1-1.6,1.5-3,1.5c-1.8,0-2.9-1.2-3.2-2.8h9.1
		C26.9,31.9,27,31.8,27,31.6z M17.7,29.5c0.5-1.4,1.7-2.2,3.1-2.2c1.7,0,2.7,0.9,3.1,2.2H17.7z"/>
	<path d="M84.2,31.9c2.3,0.4,3,0.9,3,1.5c0,0.8-1,1.2-2.1,1.2c-1.2,0-2.3-0.5-2.5-1.7c0-0.2-0.1-0.2-0.2-0.2H80
		c-0.2,0-0.2,0.1-0.2,0.2c0.2,2.6,2.2,4.2,5.3,4.2c3,0,5.1-1.6,5.1-3.8c0-2.2-1.7-3.1-4.3-3.6c-2.4-0.4-2.9-0.9-2.9-1.5
		c0-0.8,0.8-1.2,1.8-1.2c1.1,0,1.8,0.5,2.1,1.2c0.1,0.2,0.2,0.2,0.3,0.2h2.4c0.2,0,0.2-0.1,0.2-0.2c-0.2-2.1-2.1-3.7-5-3.7
		c-2.3,0-4.8,1-4.8,3.7C80,30.3,81.3,31.4,84.2,31.9z"/>
	<path d="M69.3,27.5h2.1v5.7c0,2.7,1.7,4,4,4c0.9,0,2.1-0.1,2.8-0.4c0.2-0.1,0.2-0.2,0.2-0.4v-2c0-0.1,0-0.2-0.2-0.2
		c0,0-0.1,0-0.2,0c-0.8,0.3-1.4,0.4-2.1,0.4c-1.2,0-1.7-0.7-1.7-2v-5.1h3.6c0.2,0,0.2-0.1,0.2-0.2v-2.1c0-0.2-0.1-0.2-0.2-0.2h-3.6
		v-3.5c0-0.2-0.1-0.2-0.2-0.2h-2.4c-0.2,0-0.2,0.1-0.2,0.2v3.5h-2.1c-0.2,0-0.2,0.1-0.2,0.2v2.1C69,27.4,69.1,27.5,69.3,27.5z"/>
	<path d="M103.1,17.4c1.5,0,2.6-0.5,3.6-1.3v0.9c0,0.2,0.1,0.2,0.2,0.2h2.4c0.2,0,0.2-0.1,0.2-0.2V5.3c0-0.2-0.1-0.2-0.2-0.2h-2.4
		c-0.2,0-0.2,0.1-0.2,0.2v5.4c0,2.9-1.4,4-2.9,4c-1.3,0-2.1-0.7-2.1-2.5v-7c0-0.2-0.1-0.2-0.2-0.2h-2.4c-0.2,0-0.2,0.1-0.2,0.2v8
		C98.9,15.8,100.4,17.4,103.1,17.4z"/>
	<path d="M112.7,21.9h2.4c0.2,0,0.2-0.1,0.2-0.2v-5.5c1,0.8,2.1,1.2,3.5,1.2c3.2,0,5.5-2.4,5.5-6.3s-2.2-6.3-5.5-6.3
		c-1.4,0-2.5,0.5-3.5,1.2V5.3c0-0.2-0.1-0.2-0.2-0.2h-2.4c-0.2,0-0.2,0.1-0.2,0.2v16.3C112.5,21.8,112.6,21.9,112.7,21.9z
		 M118.3,7.4c1.9,0,3,1.6,3,3.7c0,2.1-1.1,3.7-3,3.7c-1.9,0-3-1.6-3-3.7C115.2,9,116.4,7.4,118.3,7.4z"/>
	<path d="M132.5,3.8c0.2,0,0.3-0.1,0.4-0.2l2.5-3c0.1-0.1,0-0.2-0.1-0.2h-3c-0.2,0-0.3,0.1-0.4,0.2l-1.7,3c-0.1,0.1,0,0.2,0.1,0.2
		H132.5z"/>
	<path d="M91.7,17.4c3,0,5.1-1.6,5.1-3.8c0-2.2-1.7-3.1-4.3-3.6c-2.4-0.4-2.9-0.9-2.9-1.5c0-0.8,0.8-1.2,1.8-1.2
		c1.1,0,1.8,0.5,2.1,1.2c0.1,0.2,0.2,0.2,0.3,0.2h2.4c0.2,0,0.2-0.1,0.2-0.2c-0.2-2.1-2.1-3.7-5-3.7c-2.3,0-4.8,1-4.8,3.7
		c0,1.8,1.3,3,4.2,3.5c2.3,0.4,3,0.9,3,1.5c0,0.8-1,1.2-2.1,1.2c-1.2,0-2.3-0.5-2.5-1.7c0-0.2-0.1-0.2-0.2-0.2h-2.4
		c-0.2,0-0.2,0.1-0.2,0.2C86.6,15.7,88.7,17.4,91.7,17.4z"/>
	<path d="M132.3,17.4c2.9,0,4.8-1.2,5.9-3.9c0-0.1,0-0.2,0-0.2c0-0.1,0-0.2-0.2-0.2h-2.4c-0.2,0-0.2,0-0.3,0.2c-0.6,1-1.6,1.5-3,1.5
		c-1.8,0-2.9-1.2-3.2-2.8h9.1c0.2,0,0.2-0.1,0.2-0.2v-0.4c0-3.5-2.3-6.5-6.2-6.5c-3.4,0-6.2,2.5-6.2,6.3S128.9,17.4,132.3,17.4z
		 M132.4,7.4c1.7,0,2.7,0.9,3.1,2.2h-6.2C129.8,8.2,131,7.4,132.4,7.4z"/>
	<path d="M141.3,17.1h2.4c0.2,0,0.2-0.1,0.2-0.2v-6.2c0-2.5,1.1-3.2,2.6-3.2c0.7,0,1.4,0.2,2.5,0.7c0.1,0,0.1,0,0.2,0
		c0.1,0,0.2-0.1,0.2-0.3V5.7c0-0.2,0-0.3-0.3-0.4c-0.7-0.2-1.4-0.4-2.2-0.4c-1.2,0-2.2,0.5-3,1.1V5.3c0-0.2-0.1-0.2-0.2-0.2h-2.4
		c-0.2,0-0.2,0.1-0.2,0.2v11.6C141,17,141.1,17.1,141.3,17.1z"/>
	<path d="M151.6,5.1c-0.2,0-0.2,0.1-0.2,0.2v11.6c0,0.2,0.1,0.2,0.2,0.2h2.4c0.2,0,0.2-0.1,0.2-0.2V5.3c0-0.2-0.1-0.2-0.2-0.2H151.6
		z"/>
	<path d="M151.4,3.5h2.7c0.2,0,0.2-0.1,0.2-0.2V0.6c0-0.2-0.1-0.2-0.2-0.2h-2.7c-0.2,0-0.2,0.1-0.2,0.2v2.7
		C151.2,3.5,151.2,3.5,151.4,3.5z"/>
	<path d="M162.6,17.4c2.9,0,4.8-1.2,5.9-3.9c0-0.1,0-0.2,0-0.2c0-0.1,0-0.2-0.2-0.2h-2.4c-0.2,0-0.2,0-0.3,0.2c-0.6,1-1.6,1.5-3,1.5
		c-1.8,0-2.9-1.2-3.2-2.8h9.1c0.2,0,0.2-0.1,0.2-0.2v-0.4c0-3.5-2.3-6.5-6.2-6.5c-3.4,0-6.2,2.5-6.2,6.3S159.1,17.4,162.6,17.4z
		 M162.6,7.4c1.7,0,2.7,0.9,3.1,2.2h-6.2C160,8.2,161.2,7.4,162.6,7.4z"/>
	<path d="M175.4,17.4c1.5,0,2.6-0.5,3.6-1.3v0.9c0,0.2,0.1,0.2,0.2,0.2h2.4c0.2,0,0.2-0.1,0.2-0.2V5.3c0-0.2-0.1-0.2-0.2-0.2h-2.4
		c-0.2,0-0.2,0.1-0.2,0.2v5.4c0,2.9-1.4,4-2.9,4c-1.3,0-2.1-0.7-2.1-2.5v-7c0-0.2-0.1-0.2-0.2-0.2h-2.4c-0.2,0-0.2,0.1-0.2,0.2v8
		C171.2,15.8,172.8,17.4,175.4,17.4z"/>
	<path d="M71.3,7.7h2.1v5.7c0,2.7,1.7,4,4,4c0.9,0,2.1-0.1,2.8-0.4c0.2-0.1,0.2-0.2,0.2-0.4v-2c0-0.1,0-0.2-0.2-0.2c0,0-0.1,0-0.2,0
		c-0.8,0.3-1.4,0.4-2.1,0.4c-1.2,0-1.7-0.7-1.7-2V7.7h3.6c0.2,0,0.2-0.1,0.2-0.2V5.3c0-0.2-0.1-0.2-0.2-0.2h-3.6V1.6
		c0-0.2-0.1-0.2-0.2-0.2h-2.4c-0.2,0-0.2,0.1-0.2,0.2v3.5h-2.1c-0.2,0-0.2,0.1-0.2,0.2v2.1C71.1,7.6,71.2,7.7,71.3,7.7z"/>
	<path d="M1.4,3.5h2.7c0.2,0,0.2-0.1,0.2-0.2V0.6c0-0.2-0.1-0.2-0.2-0.2H1.4c-0.2,0-0.2,0.1-0.2,0.2v2.7C1.1,3.5,1.2,3.5,1.4,3.5z"
		/>
	<path d="M14.7,16.9c0,0.2,0.1,0.2,0.2,0.2h2.4c0.2,0,0.2-0.1,0.2-0.2v-8c0-2.5-1.6-4.1-4.2-4.1c-1.5,0-2.6,0.5-3.6,1.3V5.3
		c0-0.2-0.1-0.2-0.2-0.2H7.1C7,5.1,6.9,5.1,6.9,5.3v11.6c0,0.2,0.1,0.2,0.2,0.2h2.4c0.2,0,0.2-0.1,0.2-0.2v-5.4c0-2.9,1.4-4,2.9-4
		c1.3,0,2.1,0.7,2.1,2.5V16.9z"/>
	<path d="M190.3,7.4c0.7,0,1.4,0.2,2.5,0.7c0.1,0,0.1,0,0.2,0c0.1,0,0.2-0.1,0.2-0.3V5.7c0-0.2,0-0.3-0.3-0.4
		c-0.7-0.2-1.4-0.4-2.2-0.4c-1.2,0-2.2,0.5-3,1.1V5.3c0-0.2-0.1-0.2-0.2-0.2h-2.4c-0.2,0-0.2,0.1-0.2,0.2v11.6
		c0,0.2,0.1,0.2,0.2,0.2h2.4c0.2,0,0.2-0.1,0.2-0.2v-6.2C187.7,8.1,188.8,7.4,190.3,7.4z"/>
	<path d="M25.1,17.4c3,0,5.1-1.6,5.1-3.8c0-2.2-1.7-3.1-4.3-3.6C23.5,9.6,23,9.1,23,8.5c0-0.8,0.8-1.2,1.8-1.2
		c1.1,0,1.8,0.5,2.1,1.2c0.1,0.2,0.2,0.2,0.3,0.2h2.4c0.2,0,0.2-0.1,0.2-0.2c-0.2-2.1-2.1-3.7-5-3.7c-2.3,0-4.8,1-4.8,3.7
		c0,1.8,1.3,3,4.2,3.5c2.3,0.4,3,0.9,3,1.5c0,0.8-1,1.2-2.1,1.2c-1.2,0-2.3-0.5-2.5-1.7c0-0.2-0.1-0.2-0.2-0.2H20
		c-0.2,0-0.2,0.1-0.2,0.2C20,15.7,22,17.4,25.1,17.4z"/>
	<path d="M1.6,5.1c-0.2,0-0.2,0.1-0.2,0.2v11.6c0,0.2,0.1,0.2,0.2,0.2H4c0.2,0,0.2-0.1,0.2-0.2V5.3c0-0.2-0.1-0.2-0.2-0.2H1.6z"/>
	<path d="M47.3,7.7h2.1v5.7c0,2.7,1.7,4,4,4c0.9,0,2.1-0.1,2.8-0.4c0.2-0.1,0.2-0.2,0.2-0.4v-2c0-0.1,0-0.2-0.2-0.2c0,0-0.1,0-0.2,0
		c-0.8,0.3-1.4,0.4-2.1,0.4c-1.2,0-1.7-0.7-1.7-2V7.7h3.6c0.2,0,0.2-0.1,0.2-0.2V5.3c0-0.2-0.1-0.2-0.2-0.2h-3.6V1.6
		c0-0.2-0.1-0.2-0.2-0.2h-2.4c-0.2,0-0.2,0.1-0.2,0.2v3.5h-2.1c-0.2,0-0.2,0.1-0.2,0.2v2.1C47.1,7.6,47.2,7.7,47.3,7.7z"/>
	<path d="M31.4,7.7h2.1v5.7c0,2.7,1.7,4,4,4c0.9,0,2.1-0.1,2.8-0.4c0.2-0.1,0.2-0.2,0.2-0.4v-2c0-0.1,0-0.2-0.2-0.2c0,0-0.1,0-0.2,0
		c-0.8,0.3-1.4,0.4-2.1,0.4c-1.2,0-1.7-0.7-1.7-2V7.7H40c0.2,0,0.2-0.1,0.2-0.2V5.3c0-0.2-0.1-0.2-0.2-0.2h-3.6V1.6
		c0-0.2-0.1-0.2-0.2-0.2h-2.4c-0.2,0-0.2,0.1-0.2,0.2v3.5h-2.1c-0.2,0-0.2,0.1-0.2,0.2v2.1C31.1,7.6,31.2,7.7,31.4,7.7z"/>
	<path d="M62.4,17.4c1.5,0,2.6-0.5,3.6-1.3v0.9c0,0.2,0.1,0.2,0.2,0.2h2.4c0.2,0,0.2-0.1,0.2-0.2V5.3c0-0.2-0.1-0.2-0.2-0.2h-2.4
		c-0.2,0-0.2,0.1-0.2,0.2v5.4c0,2.9-1.4,4-2.9,4c-1.3,0-2.1-0.7-2.1-2.5v-7c0-0.2-0.1-0.2-0.2-0.2h-2.4c-0.2,0-0.2,0.1-0.2,0.2v8
		C58.2,15.8,59.8,17.4,62.4,17.4z"/>
	<path d="M42.4,3.5h2.7c0.2,0,0.2-0.1,0.2-0.2V0.6c0-0.2-0.1-0.2-0.2-0.2h-2.7c-0.2,0-0.2,0.1-0.2,0.2v2.7
		C42.2,3.5,42.3,3.5,42.4,3.5z"/>
	<path d="M45,17.1c0.2,0,0.2-0.1,0.2-0.2V5.3c0-0.2-0.1-0.2-0.2-0.2h-2.4c-0.2,0-0.2,0.1-0.2,0.2v11.6c0,0.2,0.1,0.2,0.2,0.2H45z"/>
	<path d="M165,71.6c0-9.1-15.7-13-37.8-14.7c1.2-0.6,2.1-1.7,2.7-3.2c0-0.1,0-0.2,0-0.2c0-0.1,0-0.2-0.2-0.2h-2.4
		c-0.2,0-0.2,0-0.3,0.2c-0.6,1-1.6,1.5-3,1.5c-1.8,0-2.9-1.2-3.2-2.8h9.1c0.2,0,0.2-0.1,0.2-0.2v-0.4c0-3.5-2.3-6.5-6.2-6.5
		c-3.4,0-6.2,2.5-6.2,6.3c0,2.2,1,4.1,2.5,5.1c-1.8-0.1-3.7-0.2-5.5-0.3c0.7-0.6,1.1-1.5,1.1-2.4c0-2.2-1.7-3.1-4.3-3.6
		c-2.4-0.4-2.9-0.9-2.9-1.5c0-0.8,0.8-1.2,1.8-1.2c1.1,0,1.8,0.5,2.1,1.2c0.1,0.2,0.2,0.2,0.3,0.2h2.4c0.2,0,0.2-0.1,0.2-0.2
		c-0.2-2.1-2.1-3.7-5-3.7c-2.3,0-4.8,1-4.8,3.7c0,1.8,1.3,3,4.2,3.5c2.3,0.4,3,0.9,3,1.5c0,0.8-1,1.2-2.1,1.2
		c-1.2,0-2.3-0.5-2.5-1.7c0-0.2-0.1-0.2-0.2-0.2h-2.4c-0.2,0-0.2,0.1-0.2,0.2c0.1,1,0.5,1.9,1.1,2.6c-1.1,0-2.2,0-3.3-0.1V45.5
		c0-0.2-0.1-0.2-0.2-0.2h-2.4c-0.2,0-0.2,0.1-0.2,0.2v5.4c0,2.9-1.4,4-2.9,4c-1.3,0-2.1-0.7-2.1-2.5v-7c0-0.2-0.1-0.2-0.2-0.2H93
		c-0.2,0-0.2,0.1-0.2,0.2v8c0,0.9,0.2,1.6,0.6,2.2c-1.6,0-3.2,0-4.7,0c1.1-1.1,1.8-2.6,1.8-4.4c0-3.6-2.8-6.3-6.4-6.3
		s-6.4,2.6-6.4,6.3c0,1.9,0.7,3.5,1.9,4.6c-1.4,0-2.8,0.1-4.2,0.2V40.7c0-0.2-0.1-0.2-0.2-0.2h-2.4c-0.2,0-0.2,0.1-0.2,0.2v15.4
		c-0.9,0.1-1.9,0.1-2.9,0.2V45.5c0-0.2-0.1-0.2-0.2-0.2h-2.4c-0.2,0-0.2,0.1-0.2,0.2v5.4c0,2.9-1.4,4-2.9,4c-1.3,0-2.1-0.7-2.1-2.5
		v-7c0-0.2-0.1-0.2-0.2-0.2h-2.4c-0.2,0-0.2,0.1-0.2,0.2v8c0,1.7,0.7,2.9,1.9,3.5c-6.8,0.6-13.2,1.5-18.3,2.7
		c-0.6,0.1-1,0.7-0.8,1.3c0.1,0.6,0.7,1,1.3,0.8c11.9-2.7,31.5-3.9,44.8-3.9c22.5,0,75.1,0,75.1,13.6c0,5.2-15,9.1-39.7,11v-2.2
		c0-0.2-0.1-0.2-0.2-0.2h-2.4c-0.2,0-0.2,0.1-0.2,0.2v2.4c-9.4,0.6-20.1,1-31.7,1c-0.1,0-0.3,0-0.4,0v-2.3c0-0.2-0.1-0.2-0.2-0.2
		h-2.4c-0.2,0-0.2,0.1-0.2,0.2v2.3C63.6,83.7,21,83.1,21,70.1c0-3.1,3.7-7.1,6.3-8.9c0.5-0.4,0.6-1.1,0.3-1.6
		c-0.4-0.5-1.1-0.6-1.6-0.3c-2.9,2-7.3,6.5-7.3,10.7c0,9.9,16.9,13.7,39.7,15.1c-2.1,1-3.5,3-3.5,5.7c0,3.7,2.7,6.3,6.2,6.3
		c2.9,0,4.8-1.2,5.9-3.9c0-0.1,0-0.2,0-0.2c0-0.1,0-0.2-0.2-0.2h-2.4c-0.2,0-0.2,0-0.3,0.2c-0.6,1-1.6,1.5-3,1.5
		c-1.8,0-2.9-1.2-3.2-2.8h9.1c0.2,0,0.2-0.1,0.2-0.2v-0.4c0-2.4-1-4.5-2.9-5.6c2.4,0.1,4.9,0.2,7.4,0.2c-1.5,1.1-2.5,2.9-2.5,5.1
		c0,3.8,2.7,6.3,6.3,6.3c3.2,0,5.3-2,5.6-4.3c0-0.1,0-0.2,0-0.2c0-0.1-0.1-0.1-0.2-0.1h-2.4c-0.2,0-0.3,0-0.3,0.2
		C78,94,77,94.6,75.6,94.6c-1.9,0-3.2-1.3-3.2-3.7c0-2.4,1.3-3.7,3.2-3.7c1.4,0,2.4,0.6,2.9,1.9c0.1,0.2,0.2,0.2,0.3,0.2h2.4
		c0.1,0,0.2,0,0.2-0.1c0,0,0-0.1,0-0.2c-0.2-1.2-0.8-2.2-1.8-3c1.1,0,2.3,0,3.4,0v1.3c0,0.2,0.1,0.2,0.2,0.2h2.1v5.7
		c0,2.7,1.7,4,4,4c0.9,0,2.1-0.1,2.8-0.4c0.2-0.1,0.2-0.2,0.2-0.4v-2c0-0.1,0-0.2-0.2-0.2c0,0-0.1,0-0.2,0c-0.8,0.3-1.4,0.4-2.1,0.4
		c-1.2,0-1.7-0.7-1.7-2v-5.1h3.6c0.2,0,0.2-0.1,0.2-0.2V86c1.1,0,2.2,0,3.4,0c-0.7,0.6-1.2,1.4-1.4,2.3c0,0.1,0,0.2,0,0.2
		c0,0.1,0.1,0.1,0.2,0.1h2.4c0.1,0,0.2,0,0.3-0.2c0.4-0.7,1.1-1.1,2.2-1.1c1.5,0,2.2,0.8,2.2,2v0.3c-0.9-0.2-1.9-0.5-3-0.5
		c-2.6,0-4.8,1.4-4.8,4c0,2.5,1.9,4,4.4,4c1.8,0,2.7-0.6,3.4-1.2v0.7c0,0.2,0.1,0.2,0.2,0.2h2.9c0.2,0,0.3-0.1,0.2-0.2
		c-0.3-0.6-0.5-1.2-0.5-2.2v-5.2c0-1.5-0.6-2.7-1.6-3.5c2-0.1,4.2-0.1,6.3-0.2c-1.7,1.1-2.8,2.9-2.8,5.3c0,3.8,2.7,6.3,6.3,6.3
		c3.2,0,5.3-2,5.6-4.3c0-0.1,0-0.2,0-0.2c0-0.1-0.1-0.1-0.2-0.1h-2.4c-0.2,0-0.3,0-0.3,0.2c-0.4,1.2-1.5,1.9-2.9,1.9
		c-1.9,0-3.2-1.3-3.2-3.7c0-2.4,1.3-3.7,3.2-3.7c1.4,0,2.4,0.6,2.9,1.9c0.1,0.2,0.2,0.2,0.3,0.2h2.4c0.1,0,0.2,0,0.2-0.1
		c0,0,0-0.1,0-0.2c-0.2-1.5-1.2-2.9-2.8-3.6c1.6-0.1,3.3-0.2,5-0.3v11.7c0,0.2,0.1,0.2,0.2,0.2h2.4c0.2,0,0.2-0.1,0.2-0.2V84.8
		C144.3,83.3,165,79.7,165,71.6z M124.2,47.6c1.7,0,2.7,0.9,3.1,2.2h-6.2C121.6,48.4,122.8,47.6,124.2,47.6z M83.9,47.6
		c2,0,3.4,1.5,3.4,3.7c0,2.2-1.4,3.7-3.4,3.7c-2,0-3.4-1.5-3.4-3.7C80.5,49,81.9,47.6,83.9,47.6z M66.5,56.2v0.3c-0.2,0-0.3,0-0.5,0
		C66.2,56.4,66.4,56.3,66.5,56.2z M58.1,89.5c0.5-1.4,1.7-2.2,3.1-2.2c1.7,0,2.7,0.9,3.1,2.2H58.1z M98.4,94.6
		c-1.3,0-2.1-0.6-2.1-1.5c0-1,1-1.5,2.2-1.5c1.1,0,1.8,0.2,2.8,0.5C101.3,93.6,99.9,94.6,98.4,94.6z"/>
</g>
</svg>
