<svg id="Calque_1" data-name="Calque 1" xmlns="http://www.w3.org/2000/svg" viewBox="0 0 378.36 277.91"><defs><style>.cls-1{fill:#1d1d1b;}</style></defs><title>MAOP logo-OK</title><path class="cls-1" d="M261.84,164.19a5.9,5.9,0,0,0-1.73-4.18,6,6,0,0,0-4.3-1.77h0a6,6,0,0,0-4.3,1.77,5.85,5.85,0,0,0-1.74,4.18,6,6,0,0,0,12.07,0h0Z" transform="translate(-66.19 -158.24)"/><path class="cls-1" d="M218.37,180.42h0a6,6,0,0,0-4.29,1.76,5.9,5.9,0,0,0,0,8.36,6,6,0,0,0,4.3,1.78h0a6,6,0,0,0,4.29-1.77,5.87,5.87,0,0,0,1.74-4.17h0A6,6,0,0,0,218.37,180.42Z" transform="translate(-66.19 -158.24)"/><path class="cls-1" d="M293,180.42a6.09,6.09,0,0,0-4.3,1.77,5.87,5.87,0,0,0-1.74,4.18,6,6,0,0,0,6,5.95h0a6,6,0,0,0,6-5.94h0A6,6,0,0,0,293,180.42Z" transform="translate(-66.19 -158.24)"/><path class="cls-1" d="M314.9,203.17h0a6,6,0,1,0,0,11.9h0a6,6,0,0,0,6-5.94h0A6,6,0,0,0,314.9,203.17Z" transform="translate(-66.19 -158.24)"/><path class="cls-1" d="M337.31,240.06h0a6,6,0,1,0,0,11.9h0a6,6,0,0,0,4.25-1.73,5.92,5.92,0,0,0,1.78-4.21h0A6,6,0,0,0,337.31,240.06Z" transform="translate(-66.19 -158.24)"/><path class="cls-1" d="M320.4,283.07a5.9,5.9,0,0,0-1.73-4.19,6,6,0,0,0-4.29-1.77h0a6,6,0,1,0,0,11.9h0a6,6,0,0,0,4.28-1.76,5.87,5.87,0,0,0,1.74-4.18h0Z" transform="translate(-66.19 -158.24)"/><path class="cls-1" d="M293,299.17a6,6,0,1,0,6,6h0A6,6,0,0,0,293,299.17Z" transform="translate(-66.19 -158.24)"/><path class="cls-1" d="M261,328.33a5.84,5.84,0,0,0-1.76-4.22,5.94,5.94,0,1,0,1.76,4.22h0Z" transform="translate(-66.19 -158.24)"/><path class="cls-1" d="M218,299.17a6,6,0,1,0,6,6h0A6,6,0,0,0,218,299.17Z" transform="translate(-66.19 -158.24)"/><path class="cls-1" d="M196.91,277.11a6,6,0,1,0,6,6h0A6,6,0,0,0,196.91,277.11Z" transform="translate(-66.19 -158.24)"/><path class="cls-1" d="M179.44,245.5a5.83,5.83,0,0,0-1.68-3.54,6.07,6.07,0,0,0-4.31-1.79,6,6,0,1,0,6,6l0-.64Z" transform="translate(-66.19 -158.24)"/><path class="cls-1" d="M196.66,215.13h0a6,6,0,0,0,6-5.94v0a6,6,0,1,0-6,6Z" transform="translate(-66.19 -158.24)"/><path class="cls-1" d="M80.89,385.67l7.87-20.1h7.49v.93c-3.74,0-4.21.32-4.21,2.81v16.86c0,2.5.47,2.81,4.21,2.81v.94H85V389c3.74,0,4.21-.31,4.21-2.81V367.6l-8.87,22.63h-.62L71,367.13v19c0,2.5.47,2.81,3.74,2.81v.94H66.19V389c3.28,0,3.78-.31,3.78-2.81V369.31c0-2.49-.66-2.81-3.78-2.81v-.93h7.34Z" transform="translate(-66.19 -158.24)"/><path class="cls-1" d="M103.23,377.12c-.78,1.5-1.09,2.18-2.27,2.18a1.17,1.17,0,0,1-1.32-1.25c0-1.74,2.81-4.05,6.87-4.05,3.12,0,6.37,1.25,6.22,5.15l-.32,7.37c-.06,1.37.19,2.15,1,2.15,1.25,0,1.81-1.68,2-2.25l.88.38c-.79,1.87-1.82,3.43-3.69,3.43s-2.65-1.4-2.65-3v-.85h-.13a6.9,6.9,0,0,1-6.24,3.81c-3.12,0-4.87-1.56-4.87-4.06,0-3.75,3.12-4.74,7-5.15,3.12-.31,4.22-1.09,4.22-3a3.26,3.26,0,0,0-3.59-3.12C104.17,374.93,103.86,375.93,103.23,377.12Zm6.72,3.4a2.32,2.32,0,0,1-1.34.75l-3.84,1c-1.88.47-3.1,1.44-3.1,3.78,0,1.87,1.25,2.65,2.84,2.65,4.5,0,5.44-4.06,5.44-5.93Z" transform="translate(-66.19 -158.24)"/><path class="cls-1" d="M117.51,389.92V389h.94c1.56,0,1.9-.31,1.9-1.87v-9.3c0-.94-.18-1.25-.72-1.25a3.57,3.57,0,0,0-1.18.31l-.63.25-.31-.94,5.15-2.18.32.31v12.8c0,1.56.31,1.87,1.87,1.87h.78v.94Zm3.87-23.57a2.19,2.19,0,1,1,0,4.37,2.19,2.19,0,0,1,0-4.37Z" transform="translate(-66.19 -158.24)"/><path class="cls-1" d="M133.28,375.25c-1.71,0-2.49.78-2.49,1.93,0,1.81,1.87,2.53,4.37,3.31,2.81.87,5.93,1.78,5.93,5.37,0,2.5-1.75,4.37-4.84,4.37-2.87,0-3.81-1.37-4.56-1.37-.37,0-1,.78-1.53,1.37h-.31L127.94,384l.88-.44c.16.31,2.75,5.43,7.12,5.43,1.87,0,3-.93,3-2.34,0-2-1.59-2.59-4.4-3.53-3.21-1.06-5.93-2.21-5.93-5.18,0-2.25,1.47-3.93,4.22-3.93,2.34,0,2.93,1,3.8,1,.5,0,.82-.29,1.53-1h.32l2,5.62-.87.43C139.43,379.74,137,375.25,133.28,375.25Z" transform="translate(-66.19 -158.24)"/><path class="cls-1" d="M152.49,374c5.15,0,8.12,3.43,8.12,8.11a7.79,7.79,0,0,1-8.12,8.12c-5.15,0-8.12-3.43-8.12-8.12A7.78,7.78,0,0,1,152.49,374Zm-.15,15.29c3.27,0,5.15-3.59,5.15-7.33,0-4.06-1.56-7-4.81-7s-5.18,3.56-5.18,7.34C147.5,386.3,149.06,389.29,152.34,389.29Z" transform="translate(-66.19 -158.24)"/><path class="cls-1" d="M163.12,389.92V389h.93c1.57,0,1.91-.31,1.91-1.87v-9.3c0-.94-.19-1.25-.72-1.25a3.68,3.68,0,0,0-1.19.31l-.62.25-.31-.94,5.43-2.18.31.31-1,4.06H168c1.06-1.56,3.25-4.37,6.24-4.37,2.44,0,4,1.37,4,4.37v8.74c0,1.56.31,1.87,1.87,1.87h.78v.94H172.8V389h.93c1.56,0,1.91-.31,1.91-1.87v-8.18c0-1.56-.81-2.75-3-2.75a4.11,4.11,0,0,0-4.09,3.9v7c0,1.56.31,1.87,1.87,1.87h.78v.94Z" transform="translate(-66.19 -158.24)"/><path class="cls-1" d="M204.69,390.23l-.31-.31.93-3.75h-.12c-.69,1.44-2.22,4.06-5.65,4.06-3.63,0-6.44-3.12-6.44-8.12s3.41-8.11,7.19-8.11a5.17,5.17,0,0,1,4.37,2.09h.12l-.12-7c0-.93-.19-1.24-.72-1.24a3.62,3.62,0,0,0-1.19.31l-.62.25-.32-.94,5.16-2.18.31.31v21.54c0,.94.19,1.28.72,1.28a5.2,5.2,0,0,0,1.18-.16l.78-.18V389Zm0-4.84V380c0-3.37-1.81-4.74-3.88-4.74-2.87,0-4.71,2.8-4.71,6.86,0,3.75,1.56,6.56,4.46,6.56A4.5,4.5,0,0,0,204.66,385.39Z" transform="translate(-66.19 -158.24)"/><path class="cls-1" d="M219.49,390.23c-4.27,0-7-3.43-7-8.12s2.81-8.11,6.87-8.11c4.53,0,6.27,3.12,6.27,7.18H215.47c0,.31,0,.62,0,.93,0,3.41,1.71,6.56,4.84,6.56,3.31,0,4.3-2.87,4.74-4.75l.87.38C225.68,385.39,224.27,390.23,219.49,390.23Zm-4-10h7.24c0-2.81-.93-5.31-3.12-5.31C217.28,374.93,215.94,377.12,215.53,380.24Z" transform="translate(-66.19 -158.24)"/><path class="cls-1" d="M238.09,389.92V389h.84c1.56,0,1.9-.31,1.9-1.87V369.06c0-.93-.18-1.24-.72-1.24a3.57,3.57,0,0,0-1.18.31l-.63.25-.31-.94,5.15-2.18.31.31v21.54c0,1.56.32,1.87,1.88,1.87h.87v.94Z" transform="translate(-66.19 -158.24)"/><path class="cls-1" d="M252.14,364.94a2.13,2.13,0,0,1,2.18,2.19,3.06,3.06,0,0,1-.62,1.62l-3.59,5.31h-1.87l4.4-5h-.94a1.79,1.79,0,0,1-1.75-1.93A2.16,2.16,0,0,1,252.14,364.94Z" transform="translate(-66.19 -158.24)"/><path class="cls-1" d="M255.58,389.92V389c2.5,0,3.24-.12,4-2.18l7.68-20.61,1.41-.93H269l7.81,22.16c.5,1.41,1.84,1.56,3.74,1.56v.94h-10V389c2.5,0,3.38-.15,3.38-1.18a1.92,1.92,0,0,0-.16-.69l-2.06-5.93H263l-2,5.62a3.73,3.73,0,0,0-.25,1.18c0,.78,1,1,3.62,1v.94Zm15.83-9.68-4-11.52-4.12,11.52Z" transform="translate(-66.19 -158.24)"/><path class="cls-1" d="M281.82,389.92V389h.93c1.56,0,1.91-.31,1.91-1.87v-9.3c0-.94-.19-1.25-.72-1.25a3.68,3.68,0,0,0-1.19.31l-.62.25-.31-.94,5.43-2.18.31.31-1,4.37h.13c1.46-2.06,3.9-4.68,5.84-4.68a1.34,1.34,0,0,1,1.49,1.25,1.56,1.56,0,0,1-1.56,1.71h-1.31c-2.18,0-3.84,1-3.84,3.59v6.56c0,1.56.31,1.87,1.87,1.87h1.13v.94Z" transform="translate(-66.19 -158.24)"/><path class="cls-1" d="M307.49,383.92l.87.38c-.22,1.09-1.62,5.93-6.4,5.93-4.53,0-7-3.43-7-8.12s2.81-8.11,6.86-8.11c4.37,0,5.94,3,5.94,4.65a1.15,1.15,0,0,1-1.25,1.28c-1.72,0-1.94-1.13-2.19-2.34-.31-1.56-.75-2.66-2.18-2.66-2.81,0-4.22,3.09-4.22,7.18,0,3.41,1.72,6.56,4.84,6.56C306.05,388.67,307.05,385.8,307.49,383.92Z" transform="translate(-66.19 -158.24)"/><path class="cls-1" d="M310.55,389.92V389h.85c1.56,0,1.9-.31,1.9-1.87V369.06c0-.93-.19-1.24-.72-1.24a3.57,3.57,0,0,0-1.18.31l-.63.25-.31-.94,5.15-2.18.31.31-.12,11.92h.12c1.19-1.53,3.22-3.49,5.69-3.49s4,1.37,4,4.37v8.74c0,1.56.31,1.87,1.88,1.87h.78v.94h-8.12V389h.93c1.56,0,1.91-.31,1.91-1.87v-8.18c0-1.56-.81-2.75-3-2.75a4.12,4.12,0,0,0-4.09,3.9v7c0,1.56.32,1.87,1.88,1.87h.87v.94Z" transform="translate(-66.19 -158.24)"/><path class="cls-1" d="M329.92,389.92V389h.94c1.56,0,1.9-.31,1.9-1.87v-9.3c0-.94-.18-1.25-.71-1.25a3.62,3.62,0,0,0-1.19.31l-.63.25-.31-.94,5.15-2.18.32.31v12.8c0,1.56.31,1.87,1.87,1.87H338v.94Zm3.87-23.57a2.19,2.19,0,1,1,0,4.37,2.19,2.19,0,0,1,0-4.37Z" transform="translate(-66.19 -158.24)"/><path class="cls-1" d="M339.29,374.31h.94c1.87,0,4.21-1.22,4.21-7.21h.94v7.21h6.12v.94h-6.12v9.36c0,3.31,1.41,4.06,2.78,4.06,2.22,0,3.34-2.34,3.68-4.84l.88.44c-.31,1.87-1.41,6-5.31,6-2.81,0-4.65-1.72-4.65-5.31v-9.67h-3.47Z" transform="translate(-66.19 -158.24)"/><path class="cls-1" d="M360.69,390.23c-4.28,0-7-3.43-7-8.12s2.81-8.11,6.87-8.11c4.53,0,6.28,3.12,6.28,7.18H356.66c0,.31,0,.62,0,.93,0,3.41,1.71,6.56,4.84,6.56,3.31,0,4.31-2.87,4.74-4.75l.88.38C366.87,385.39,365.47,390.23,360.69,390.23Zm-4-10H364c0-2.81-.94-5.31-3.13-5.31C358.47,374.93,357.13,377.12,356.72,380.24Z" transform="translate(-66.19 -158.24)"/><path class="cls-1" d="M382.45,383.92l.88.38c-.22,1.09-1.62,5.93-6.4,5.93-4.53,0-7-3.43-7-8.12s2.82-8.11,6.87-8.11c4.37,0,5.94,3,5.94,4.65a1.15,1.15,0,0,1-1.25,1.28c-1.72,0-1.94-1.13-2.19-2.34-.31-1.56-.75-2.66-2.18-2.66-2.81,0-4.22,3.09-4.22,7.18,0,3.41,1.72,6.56,4.84,6.56C381,388.67,382,385.8,382.45,383.92Z" transform="translate(-66.19 -158.24)"/><path class="cls-1" d="M384.9,374.31h.94c1.87,0,4.21-1.22,4.21-7.21H391v7.21h6.12v.94H391v9.36c0,3.31,1.4,4.06,2.78,4.06,2.21,0,3.34-2.34,3.68-4.84l.87.44c-.31,1.87-1.4,6-5.3,6-2.81,0-4.66-1.72-4.66-5.31v-9.67H384.9Z" transform="translate(-66.19 -158.24)"/><path class="cls-1" d="M403.77,374.31v11c0,1.56.81,2.75,3,2.75a4.11,4.11,0,0,0,4.09-3.91v-7c0-1.56-.28-1.87-1.87-1.87h-.78v-.94h5.27v12.8c0,.94.19,1.28.72,1.28a5.28,5.28,0,0,0,1.19-.16l.78-.18V389l-5.28,1.25-.31-.31,1-4.06h-.13c-1.06,1.56-3.24,4.37-6.24,4.37-2.44,0-4-1.37-4-4.37v-8.74c0-1.56-.31-1.87-1.87-1.87h-.78v-.94Z" transform="translate(-66.19 -158.24)"/><path class="cls-1" d="M418,389.92V389H419c1.56,0,1.9-.31,1.9-1.87v-9.3c0-.94-.18-1.25-.71-1.25a3.62,3.62,0,0,0-1.19.31l-.63.25-.31-.94,5.44-2.18.31.31-1,4.37h.12c1.47-2.06,3.9-4.68,5.84-4.68a1.34,1.34,0,0,1,1.5,1.25,1.57,1.57,0,0,1-1.56,1.71h-1.31c-2.19,0-3.84,1-3.84,3.59v6.56c0,1.56.31,1.87,1.87,1.87h1.12v.94Z" transform="translate(-66.19 -158.24)"/><path class="cls-1" d="M438.16,390.23c-4.28,0-7-3.43-7-8.12S433.94,374,438,374c4.53,0,6.27,3.12,6.27,7.18H434.13c0,.31,0,.62,0,.93,0,3.41,1.71,6.56,4.84,6.56,3.3,0,4.3-2.87,4.74-4.75l.87.38C444.34,385.39,442.93,390.23,438.16,390.23Zm-4-10h7.24c0-2.81-.93-5.31-3.12-5.31C435.94,374.93,434.59,377.12,434.19,380.24Z" transform="translate(-66.19 -158.24)"/><path class="cls-1" d="M113.94,404.3c6.87,0,11.24,5.31,11.24,12.46s-4.37,12.52-11.24,12.52S102.7,424,102.7,416.76,107.07,404.3,113.94,404.3Zm.31,24c4.84,0,7.53-5,7.53-11.58,0-6.24-2.38-11.52-8.15-11.52-4.84,0-7.53,5.28-7.53,11.52S108.48,428.34,114.25,428.34Z" transform="translate(-66.19 -158.24)"/><path class="cls-1" d="M140.87,423l.87.38c-.22,1.09-1.62,5.93-6.4,5.93-4.52,0-7-3.44-7-8.12s2.81-8.12,6.87-8.12c4.37,0,5.93,3,5.93,4.65a1.16,1.16,0,0,1-1.25,1.29c-1.72,0-1.94-1.13-2.19-2.35-.31-1.56-.75-2.65-2.18-2.65-2.81,0-4.22,3.09-4.22,7.18,0,3.4,1.72,6.56,4.84,6.56C139.43,427.72,140.43,424.85,140.87,423Z" transform="translate(-66.19 -158.24)"/><path class="cls-1" d="M157.11,423l.87.38c-.21,1.09-1.62,5.93-6.39,5.93-4.53,0-7-3.44-7-8.12s2.81-8.12,6.87-8.12c4.37,0,5.93,3,5.93,4.65a1.16,1.16,0,0,1-1.25,1.29c-1.71,0-1.93-1.13-2.18-2.35-.31-1.56-.75-2.65-2.19-2.65-2.81,0-4.21,3.09-4.21,7.18,0,3.4,1.71,6.56,4.84,6.56C155.68,427.72,156.67,424.85,157.11,423Z" transform="translate(-66.19 -158.24)"/><path class="cls-1" d="M160.18,429V428h.94c1.56,0,1.9-.31,1.9-1.87v-9.31c0-.93-.19-1.25-.72-1.25a3.6,3.6,0,0,0-1.18.32l-.63.25-.31-.94,5.15-2.19.31.32v12.8c0,1.56.32,1.87,1.88,1.87h.78V429Zm3.87-23.57a2.19,2.19,0,1,1-2.18,2.18A2.13,2.13,0,0,1,164.05,405.4Z" transform="translate(-66.19 -158.24)"/><path class="cls-1" d="M169.55,413.36h.94c1.87,0,4.21-1.22,4.21-7.22h.94v7.22h6.12v.93h-6.12v9.37c0,3.31,1.4,4.06,2.78,4.06,2.21,0,3.34-2.34,3.68-4.84l.88.44c-.32,1.87-1.41,6-5.31,6-2.81,0-4.65-1.72-4.65-5.31v-9.68h-3.47Z" transform="translate(-66.19 -158.24)"/><path class="cls-1" d="M188.38,416.17c-.78,1.49-1.09,2.18-2.28,2.18a1.16,1.16,0,0,1-1.31-1.25c0-1.75,2.81-4.06,6.87-4.06,3.12,0,6.37,1.25,6.22,5.16l-.32,7.36c-.06,1.38.19,2.16,1,2.16,1.25,0,1.81-1.69,2-2.25l.87.37c-.78,1.88-1.81,3.44-3.68,3.44s-2.65-1.41-2.65-3v-.84H195a6.9,6.9,0,0,1-6.24,3.81c-3.12,0-4.87-1.56-4.87-4.06,0-3.75,3.12-4.74,7-5.15,3.12-.31,4.22-1.09,4.22-3a3.26,3.26,0,0,0-3.59-3.12C189.32,414,189,415,188.38,416.17Zm6.72,3.4a2.32,2.32,0,0,1-1.35.75l-3.84,1c-1.87.46-3.09,1.43-3.09,3.77,0,1.88,1.25,2.66,2.84,2.66,4.5,0,5.44-4.06,5.44-5.94Z" transform="translate(-66.19 -158.24)"/><path class="cls-1" d="M202.66,429V428h.94c1.56,0,1.9-.31,1.9-1.87v-9.31c0-.93-.19-1.25-.72-1.25a3.6,3.6,0,0,0-1.18.32l-.63.25-.31-.94,5.43-2.19.32.32-1,4.05h.12c1.06-1.56,3.25-4.37,6.25-4.37,2.43,0,4,1.38,4,4.37v8.75c0,1.56.32,1.87,1.88,1.87h.78V429h-8.12V428h.94c1.56,0,1.9-.31,1.9-1.87V418c0-1.56-.81-2.75-3-2.75a4.1,4.1,0,0,0-4.08,3.9v7c0,1.56.31,1.87,1.87,1.87h.78V429Z" transform="translate(-66.19 -158.24)"/><path class="cls-1" d="M222,429V428H223c1.57,0,1.91-.31,1.91-1.87v-9.31c0-.93-.19-1.25-.72-1.25a3.72,3.72,0,0,0-1.19.32l-.62.25-.31-.94,5.15-2.19.31.32v12.8c0,1.56.31,1.87,1.87,1.87h.79V429Zm3.87-23.57a2.19,2.19,0,0,1,0,4.37,2.19,2.19,0,1,1,0-4.37Z" transform="translate(-66.19 -158.24)"/><path class="cls-1" d="M239.67,429.28c-4.28,0-7-3.44-7-8.12s2.81-8.12,6.87-8.12c4.52,0,6.27,3.13,6.27,7.18H235.64c0,.32,0,.63,0,.94,0,3.4,1.72,6.56,4.84,6.56,3.31,0,4.31-2.87,4.75-4.75l.87.38C245.85,424.44,244.45,429.28,239.67,429.28Zm-4-10H243c0-2.81-.94-5.31-3.12-5.31C237.46,414,236.11,416.17,235.71,419.29Z" transform="translate(-66.19 -158.24)"/><path class="cls-1" d="M285.31,404.62h12.36c5,0,8.9,1.71,8.9,6.39s-3.91,6.53-8.9,6.53h-5.34v7.68c0,2.5.47,2.81,4.21,2.81V429H285.31V428c3.74,0,4.21-.31,4.21-2.81V408.36c0-2.5-.47-2.81-4.21-2.81Zm7,12h4.4c3.75,0,6.43-1.21,6.43-5.59,0-4.09-2.68-5.46-6.43-5.46h-1.47c-2.87,0-2.93.88-2.93,3.12Z" transform="translate(-66.19 -158.24)"/><path class="cls-1" d="M314.29,431.62c-1.44,3.71-3.87,4.53-6,4.53-1.4,0-2.06-.56-2.06-1.44a1.54,1.54,0,0,1,2.06-1.47l2.25.69c1.16.34,2-.41,2.78-2.47l1.19-3.24-5-12.37c-.56-1.4-1-1.56-2.65-1.56v-.93h7.68v.93h-1c-.91,0-1.28.25-1.28.72a2.44,2.44,0,0,0,.19.84l3.34,9,3-7.9a4.53,4.53,0,0,0,.38-1.6c0-.59-.25-1.06-1.5-1.06h-1.4v-.93h7.17v.93h-.87c-1.22,0-1.81.63-2.4,2.19Z" transform="translate(-66.19 -158.24)"/><path class="cls-1" d="M324,429V428H325c1.56,0,1.9-.31,1.9-1.87v-9.31c0-.93-.19-1.25-.72-1.25a3.6,3.6,0,0,0-1.18.32l-.63.25-.31-.94,5.43-2.19.31.32-1,4.37h.13c1.46-2.06,3.9-4.69,5.84-4.69a1.34,1.34,0,0,1,1.49,1.25,1.57,1.57,0,0,1-1.56,1.72h-1.31c-2.18,0-3.84,1-3.84,3.59v6.56c0,1.56.32,1.87,1.88,1.87h1.12V429Z" transform="translate(-66.19 -158.24)"/><path class="cls-1" d="M344.18,429.28c-4.27,0-7-3.44-7-8.12S340,413,344,413c4.52,0,6.27,3.13,6.27,7.18H340.15c0,.32,0,.63,0,.94,0,3.4,1.72,6.56,4.84,6.56,3.31,0,4.31-2.87,4.75-4.75l.87.38C350.36,424.44,349,429.28,344.18,429.28Zm-4-10h7.24c0-2.81-.93-5.31-3.12-5.31C342,414,340.62,416.17,340.22,419.29Zm3.49-8.74h-.93l2.81-5.93h3.12Z" transform="translate(-66.19 -158.24)"/><path class="cls-1" d="M352.78,429V428h.93c1.57,0,1.91-.31,1.91-1.87v-9.31c0-.93-.19-1.25-.72-1.25a3.72,3.72,0,0,0-1.19.32l-.62.25-.31-.94,5.43-2.19.31.32-1,4.05h.12c1.06-1.56,3.25-4.37,6.24-4.37,2.44,0,4,1.38,4,4.37v8.75c0,1.56.31,1.87,1.87,1.87h.78V429h-8.11V428h.93c1.56,0,1.91-.31,1.91-1.87V418c0-1.56-.81-2.75-3-2.75a4.1,4.1,0,0,0-4.09,3.9v7c0,1.56.31,1.87,1.88,1.87h.78V429Z" transform="translate(-66.19 -158.24)"/><path class="cls-1" d="M379.79,429.28c-4.27,0-7-3.44-7-8.12s2.81-8.12,6.87-8.12c4.52,0,6.27,3.13,6.27,7.18H375.76c0,.32,0,.63,0,.94,0,3.4,1.72,6.56,4.84,6.56,3.31,0,4.31-2.87,4.75-4.75l.87.38C386,424.44,384.57,429.28,379.79,429.28Zm-4-10h7.24c0-2.81-.93-5.31-3.12-5.31C377.58,414,376.23,416.17,375.83,419.29Zm3.49-8.74h-.93l2.81-5.93h3.12Z" transform="translate(-66.19 -158.24)"/><path class="cls-1" d="M396,429.28c-4.28,0-7-3.44-7-8.12s2.81-8.12,6.87-8.12c4.53,0,6.28,3.13,6.28,7.18H392c0,.32,0,.63,0,.94,0,3.4,1.71,6.56,4.84,6.56,3.31,0,4.31-2.87,4.74-4.75l.88.38C402.22,424.44,400.82,429.28,396,429.28Zm-4-10h7.25c0-2.81-.94-5.31-3.13-5.31C393.82,414,392.48,416.17,392.07,419.29Z" transform="translate(-66.19 -158.24)"/><path class="cls-1" d="M410.41,414.29c-1.72,0-2.5.78-2.5,1.94,0,1.81,1.87,2.53,4.37,3.31,2.81.87,5.93,1.78,5.93,5.37,0,2.5-1.75,4.37-4.84,4.37-2.87,0-3.8-1.38-4.55-1.38-.38,0-1,.78-1.53,1.38H407l-1.9-6.24.87-.44c.16.31,2.75,5.43,7.12,5.43,1.87,0,3-.94,3-2.34,0-2-1.59-2.59-4.4-3.53-3.22-1.06-5.94-2.22-5.94-5.18,0-2.25,1.47-3.94,4.22-3.94,2.34,0,2.94,1,3.81,1,.5,0,.81-.28,1.53-1h.31l2,5.62-.88.44C416.56,418.79,414.15,414.29,410.41,414.29Z" transform="translate(-66.19 -158.24)"/><path class="cls-1" d="M256.73,420.54h17.5v.94h-17.5Z" transform="translate(-66.19 -158.24)"/></svg>