<svg xmlns="http://www.w3.org/2000/svg" viewBox="0 0 1017.4 350.56"><defs><style>.cls-1{isolation:isolate;}.cls-2{mix-blend-mode:multiply;}.cls-3{fill:#1d1d1b;}</style></defs><title>MA Occitanie Pyreìneìes — LOGO</title><g class="cls-1"><g id="Calque_1" data-name="Calque 1"><g class="cls-2"><path class="cls-3" d="M319.67,315.34a4.54,4.54,0,0,1-4.61-4.6,4.56,4.56,0,1,1,9.11,0,4.52,4.52,0,0,1-4.51,4.6m0-17.82a4.54,4.54,0,0,1-4.61-4.6,4.56,4.56,0,1,1,9.11,0,4.52,4.52,0,0,1-4.51,4.6m0-17.82a4.6,4.6,0,1,1,4.51-4.6,4.6,4.6,0,0,1-4.51,4.6m0-17.82a4.6,4.6,0,1,1,4.51-4.6,4.6,4.6,0,0,1-4.51,4.6m-15.93,8.34a4.67,4.67,0,0,1-4.61-4.6,4.6,4.6,0,0,1,4.61-4.6,4.54,4.54,0,0,1,4.61,4.6,4.6,4.6,0,0,1-4.61,4.6M296.26,288a4.54,4.54,0,0,1-4.61-4.6,4.6,4.6,0,0,1,4.61-4.6,4.67,4.67,0,0,1,4.61,4.6,4.6,4.6,0,0,1-4.61,4.6m-7.87-17.82a4.6,4.6,0,0,1-4.61-4.6,4.54,4.54,0,0,1,4.61-4.6,4.6,4.6,0,0,1,4.6,4.6,4.66,4.66,0,0,1-4.6,4.6m-15.54,45.12a4.54,4.54,0,0,1-4.61-4.6,4.6,4.6,0,0,1,4.61-4.6,4.67,4.67,0,0,1,4.61,4.6,4.6,4.6,0,0,1-4.61,4.6m0-17.82a4.54,4.54,0,0,1-4.61-4.6,4.6,4.6,0,0,1,4.61-4.6,4.67,4.67,0,0,1,4.61,4.6,4.6,4.6,0,0,1-4.61,4.6m0-17.82a4.6,4.6,0,1,1,0-9.19,4.6,4.6,0,1,1,0,9.19m0-17.82a4.6,4.6,0,1,1,0-9.2,4.6,4.6,0,1,1,0,9.2" transform="translate(-86.64 -252.41)"/><path class="cls-3" d="M393.92,306.15a4.6,4.6,0,0,1,4.61,4.6,4.54,4.54,0,0,1-4.61,4.6,4.6,4.6,0,0,1-4.6-4.6,4.66,4.66,0,0,1,4.6-4.6m-7.58-17.91a4.6,4.6,0,1,1,0,9.2,4.6,4.6,0,1,1,0-9.2m-7.68-17.91a4.54,4.54,0,0,1,4.61,4.6,4.56,4.56,0,1,1-9.11,0,4.52,4.52,0,0,1,4.51-4.6m-7.58,26.92a4.54,4.54,0,0,1,4.61,4.6,4.56,4.56,0,1,1-9.12,0,4.52,4.52,0,0,1,4.51-4.6m0-44.83a4.54,4.54,0,0,1,4.61,4.6,4.56,4.56,0,1,1-9.12,0,4.52,4.52,0,0,1,4.51-4.6m-7.58,17.91a4.52,4.52,0,0,1,4.51,4.6,4.56,4.56,0,1,1-4.51-4.6m-7.67,17.91a4.6,4.6,0,1,1,0,9.2,4.6,4.6,0,1,1,0-9.2m-7.58,17.91a4.67,4.67,0,0,1,4.61,4.6,4.6,4.6,0,0,1-4.61,4.6,4.54,4.54,0,0,1-4.61-4.6,4.6,4.6,0,0,1,4.61-4.6" transform="translate(-86.64 -252.41)"/><path class="cls-3" d="M463.19,306.15a4.67,4.67,0,0,1,4.61,4.6,4.6,4.6,0,0,1-4.61,4.6,4.54,4.54,0,0,1-4.61-4.6,4.6,4.6,0,0,1,4.61-4.6m0-53.45a4.6,4.6,0,1,1,0,9.2,4.6,4.6,0,1,1,0-9.2m-17.37,53.45a4.6,4.6,0,0,1,4.6,4.6,4.54,4.54,0,0,1-4.6,4.6,4.6,4.6,0,0,1-4.61-4.6,4.67,4.67,0,0,1,4.61-4.6m0-17.82a4.6,4.6,0,0,1,4.6,4.6,4.54,4.54,0,0,1-4.6,4.6,4.6,4.6,0,0,1-4.61-4.6,4.67,4.67,0,0,1,4.61-4.6m0-17.82a4.6,4.6,0,1,1,0,9.2,4.6,4.6,0,1,1,0-9.2m0-17.82a4.6,4.6,0,1,1,0,9.2,4.6,4.6,0,1,1,0-9.2m-17.27,53.45a4.66,4.66,0,0,1,4.61,4.6,4.6,4.6,0,0,1-4.61,4.6,4.54,4.54,0,0,1-4.61-4.6,4.6,4.6,0,0,1,4.61-4.6m0-53.45a4.6,4.6,0,1,1,0,9.2,4.6,4.6,0,1,1,0-9.2" transform="translate(-86.64 -252.41)"/><path class="cls-3" d="M538,299.54a4.6,4.6,0,0,1,4.61,4.6,4.54,4.54,0,0,1-4.61,4.6,4.6,4.6,0,0,1-4.61-4.6,4.66,4.66,0,0,1,4.61-4.6m0-15.71a4.54,4.54,0,0,1,4.61,4.6A4.6,4.6,0,0,1,538,293a4.66,4.66,0,0,1-4.61-4.6,4.6,4.6,0,0,1,4.61-4.6m0-23.95a4.6,4.6,0,0,1,4.61,4.6,4.54,4.54,0,0,1-4.61,4.6,4.6,4.6,0,0,1-4.61-4.6,4.67,4.67,0,0,1,4.61-4.6m-17.18,46.27a4.66,4.66,0,0,1,4.61,4.6,4.6,4.6,0,0,1-4.61,4.6,4.54,4.54,0,0,1-4.6-4.6,4.6,4.6,0,0,1,4.6-4.6m0-26.44a4.55,4.55,0,1,1-4.6,4.5,4.52,4.52,0,0,1,4.6-4.5m0-27a4.6,4.6,0,0,1,4.61,4.6,4.67,4.67,0,0,1-4.61,4.6,4.6,4.6,0,0,1-4.6-4.6,4.54,4.54,0,0,1,4.6-4.6m-17.36,46.84a4.67,4.67,0,0,1,4.61,4.6,4.6,4.6,0,0,1-4.61,4.6,4.54,4.54,0,0,1-4.61-4.6,4.6,4.6,0,0,1,4.61-4.6m0-24a4.67,4.67,0,0,1,4.61,4.6,4.61,4.61,0,0,1-4.61,4.6,4.55,4.55,0,0,1-4.61-4.6,4.6,4.6,0,0,1,4.61-4.6m0-15.61a4.67,4.67,0,0,1,4.61,4.6,4.6,4.6,0,0,1-4.61,4.6,4.54,4.54,0,0,1-4.61-4.6,4.6,4.6,0,0,1,4.61-4.6" transform="translate(-86.64 -252.41)"/><path class="cls-3" d="M616.69,279.52a4.54,4.54,0,0,1,4.61,4.6,4.6,4.6,0,0,1-4.61,4.6,4.67,4.67,0,0,1-4.6-4.6,4.6,4.6,0,0,1,4.6-4.6m-5,15a4.52,4.52,0,0,1,4.51,4.6,4.56,4.56,0,1,1-4.51-4.6m0-29.69a4.55,4.55,0,1,1-4.61,4.6,4.52,4.52,0,0,1,4.61-4.6m-16.31,41.29a4.6,4.6,0,0,1,4.61,4.6,4.54,4.54,0,0,1-4.61,4.6,4.6,4.6,0,0,1-4.6-4.6,4.66,4.66,0,0,1,4.6-4.6m0-53.45a4.54,4.54,0,0,1,4.61,4.6,4.6,4.6,0,0,1-4.61,4.6,4.67,4.67,0,0,1-4.6-4.6,4.6,4.6,0,0,1,4.6-4.6m-16.5,41.86a4.54,4.54,0,0,1,4.6,4.6,4.6,4.6,0,0,1-4.6,4.6,4.66,4.66,0,0,1-4.61-4.6,4.6,4.6,0,0,1,4.61-4.6m0-29.69a4.55,4.55,0,1,1-4.61,4.6,4.6,4.6,0,0,1,4.61-4.6m-4.32,14.66a4.6,4.6,0,0,1,4.61,4.6,4.67,4.67,0,0,1-4.61,4.6,4.61,4.61,0,0,1-4.61-4.6,4.54,4.54,0,0,1,4.61-4.6" transform="translate(-86.64 -252.41)"/><path class="cls-3" d="M688.35,306.15a4.6,4.6,0,0,1,4.6,4.6,4.56,4.56,0,1,1-4.6-4.6m0-17.53a4.55,4.55,0,1,1-4.51,4.5,4.52,4.52,0,0,1,4.51-4.5m0-17.91a4.54,4.54,0,0,1,4.6,4.6,4.56,4.56,0,1,1-9.11,0,4.52,4.52,0,0,1,4.51-4.6m0-18a4.55,4.55,0,1,1-4.51,4.5,4.52,4.52,0,0,1,4.51-4.5m-16.22,35.92a4.55,4.55,0,1,1,0,9.1,4.55,4.55,0,1,1,0-9.1m-3.26-17.91a4.6,4.6,0,0,1,4.61,4.6,4.67,4.67,0,0,1-4.61,4.6,4.6,4.6,0,0,1-4.61-4.6,4.54,4.54,0,0,1,4.61-4.6m-16.5,35.44a4.67,4.67,0,0,1,4.61,4.6,4.6,4.6,0,0,1-4.61,4.6,4.54,4.54,0,0,1-4.61-4.6,4.6,4.6,0,0,1,4.61-4.6m0-17.53a4.55,4.55,0,1,1-4.61,4.5,4.52,4.52,0,0,1,4.61-4.5m0-17.91a4.6,4.6,0,0,1,4.61,4.6,4.67,4.67,0,0,1-4.61,4.6,4.6,4.6,0,0,1-4.61-4.6,4.54,4.54,0,0,1,4.61-4.6m0-18a4.55,4.55,0,1,1-4.61,4.5,4.52,4.52,0,0,1,4.61-4.5" transform="translate(-86.64 -252.41)"/><path class="cls-3" d="M839.35,279.42a4.59,4.59,0,0,1,4.51,4.6,4.56,4.56,0,1,1-9.12,0,4.6,4.6,0,0,1,4.61-4.6m-5.66,14.37a4.54,4.54,0,0,1,4.61,4.6,4.6,4.6,0,0,1-4.61,4.6,4.67,4.67,0,0,1-4.61-4.6,4.6,4.6,0,0,1,4.61-4.6m0-29.31a4.54,4.54,0,0,1,4.61,4.6,4.6,4.6,0,0,1-4.61,4.6,4.67,4.67,0,0,1-4.61-4.6,4.6,4.6,0,0,1,4.61-4.6M818,306.15a4.58,4.58,0,0,1,4.51,4.6,4.56,4.56,0,1,1-9.11,0,4.6,4.6,0,0,1,4.6-4.6m0-53.45a4.6,4.6,0,1,1-4.6,4.6,4.58,4.58,0,0,1,4.6-4.6m-16.69,53.45a4.58,4.58,0,0,1,4.51,4.6,4.56,4.56,0,1,1-9.12,0,4.6,4.6,0,0,1,4.61-4.6m0-17.82a4.58,4.58,0,0,1,4.51,4.6,4.56,4.56,0,1,1-9.12,0,4.6,4.6,0,0,1,4.61-4.6m0-17.82a4.6,4.6,0,1,1-4.61,4.6,4.58,4.58,0,0,1,4.61-4.6m-0.1-17.82a4.6,4.6,0,1,1,0,9.2,4.6,4.6,0,1,1,0-9.2" transform="translate(-86.64 -252.41)"/><path class="cls-3" d="M912.36,306.15a4.6,4.6,0,0,1,4.61,4.6,4.54,4.54,0,0,1-4.61,4.6,4.6,4.6,0,0,1-4.6-4.6,4.66,4.66,0,0,1,4.6-4.6m0-53.45a4.55,4.55,0,1,1,0,9.1,4.55,4.55,0,1,1,0-9.1M894.8,306.15a4.6,4.6,0,0,1,4.61,4.6,4.54,4.54,0,0,1-4.61,4.6,4.6,4.6,0,0,1-4.61-4.6,4.67,4.67,0,0,1,4.61-4.6m0-26.53a4.54,4.54,0,0,1,4.61,4.6,4.6,4.6,0,0,1-4.61,4.6,4.67,4.67,0,0,1-4.61-4.6,4.6,4.6,0,0,1,4.61-4.6m0-26.92a4.55,4.55,0,1,1,0,9.1,4.55,4.55,0,1,1,0-9.1m-17.36,53.45a4.67,4.67,0,0,1,4.61,4.6,4.6,4.6,0,0,1-4.61,4.6,4.54,4.54,0,0,1-4.61-4.6,4.6,4.6,0,0,1,4.61-4.6m0-17.63a4.6,4.6,0,0,1,4.61,4.6,4.67,4.67,0,0,1-4.61,4.6,4.6,4.6,0,0,1-4.61-4.6,4.54,4.54,0,0,1,4.61-4.6m0-17.82a4.6,4.6,0,0,1,4.61,4.6,4.67,4.67,0,0,1-4.61,4.6,4.6,4.6,0,0,1-4.61-4.6,4.54,4.54,0,0,1,4.61-4.6m0-18a4.55,4.55,0,1,1-4.61,4.5,4.52,4.52,0,0,1,4.61-4.5" transform="translate(-86.64 -252.41)"/><path class="cls-3" d="M127,401.93a4.6,4.6,0,0,1,4.61,4.6,4.56,4.56,0,1,1-4.61-4.6m-17.84,0a4.67,4.67,0,0,1,4.61,4.6,4.61,4.61,0,0,1-9.21,0,4.67,4.67,0,0,1,4.61-4.6m-17.85,0a4.58,4.58,0,0,1,4.51,4.6,4.56,4.56,0,1,1-9.11,0,4.6,4.6,0,0,1,4.6-4.6m0-17.82a4.58,4.58,0,0,1,4.51,4.6,4.56,4.56,0,1,1-9.11,0,4.6,4.6,0,0,1,4.6-4.6m0-17.82a4.6,4.6,0,1,1-4.6,4.6,4.58,4.58,0,0,1,4.6-4.6m-0.1-17.82a4.6,4.6,0,1,1,0,9.2,4.6,4.6,0,1,1,0-9.2" transform="translate(-86.64 -252.41)"/><path class="cls-3" d="M178.93,348.48a4.6,4.6,0,0,1,4.61,4.6,4.54,4.54,0,0,1-4.61,4.6,4.6,4.6,0,0,1-4.6-4.6,4.66,4.66,0,0,1,4.6-4.6m-5.66,13.31a4.67,4.67,0,0,1,4.61,4.6,4.6,4.6,0,0,1-4.61,4.6,4.54,4.54,0,0,1-4.61-4.6,4.6,4.6,0,0,1,4.61-4.6" transform="translate(-86.64 -252.41)"/><path class="cls-3" d="M281.68,401.93a4.6,4.6,0,0,1,4.61,4.6,4.54,4.54,0,0,1-4.61,4.6,4.6,4.6,0,0,1-4.6-4.6,4.66,4.66,0,0,1,4.6-4.6M274.1,384a4.6,4.6,0,1,1,0,9.2,4.6,4.6,0,1,1,0-9.2m-7.68-17.91a4.54,4.54,0,0,1,4.61,4.6,4.56,4.56,0,1,1-9.11,0,4.52,4.52,0,0,1,4.51-4.6M258.85,393a4.54,4.54,0,0,1,4.61,4.6,4.56,4.56,0,1,1-9.12,0,4.52,4.52,0,0,1,4.51-4.6m0-44.83a4.54,4.54,0,0,1,4.61,4.6,4.56,4.56,0,1,1-9.12,0,4.52,4.52,0,0,1,4.51-4.6m-7.58,17.91a4.52,4.52,0,0,1,4.51,4.6,4.56,4.56,0,1,1-4.51-4.6M243.59,384a4.6,4.6,0,1,1,0,9.2,4.6,4.6,0,1,1,0-9.2M236,401.93a4.67,4.67,0,0,1,4.61,4.6,4.6,4.6,0,0,1-4.61,4.6,4.54,4.54,0,0,1-4.61-4.6,4.6,4.6,0,0,1,4.61-4.6" transform="translate(-86.64 -252.41)"/><path class="cls-3" d="M351.71,401.93a4.66,4.66,0,0,1,4.61,4.6,4.6,4.6,0,0,1-4.61,4.6,4.54,4.54,0,0,1-4.61-4.6,4.6,4.6,0,0,1,4.61-4.6m-4.32-30.75a4.66,4.66,0,0,1,4.61,4.6,4.6,4.6,0,0,1-4.61,4.6,4.54,4.54,0,0,1-4.6-4.6,4.6,4.6,0,0,1,4.6-4.6m0-15.9a4.55,4.55,0,1,1-4.6,4.5,4.52,4.52,0,0,1,4.6-4.5m-5.28,34.2a4.55,4.55,0,1,1-4.61,4.6,4.6,4.6,0,0,1,4.61-4.6m-10.55-14.28a4.61,4.61,0,0,1,4.61,4.6,4.54,4.54,0,0,1-4.61,4.6,4.6,4.6,0,0,1-4.61-4.6,4.67,4.67,0,0,1,4.61-4.6m0-26.73a4.6,4.6,0,1,1,0,9.2,4.6,4.6,0,1,1,0-9.2m-15.35,53.45a4.67,4.67,0,0,1,4.61,4.6,4.6,4.6,0,0,1-4.61,4.6,4.54,4.54,0,0,1-4.61-4.6,4.6,4.6,0,0,1,4.61-4.6m0-17.82a4.67,4.67,0,0,1,4.61,4.6,4.6,4.6,0,0,1-4.61,4.6,4.54,4.54,0,0,1-4.61-4.6,4.6,4.6,0,0,1,4.61-4.6m0-17.82a4.67,4.67,0,0,1,4.61,4.6,4.6,4.6,0,0,1-4.61,4.6,4.54,4.54,0,0,1-4.61-4.6,4.6,4.6,0,0,1,4.61-4.6m0-17.82a4.6,4.6,0,1,1,0,9.2,4.6,4.6,0,1,1,0-9.2" transform="translate(-86.64 -252.41)"/><path class="cls-3" d="M427.21,390.15a4.67,4.67,0,0,1,4.61,4.6,4.6,4.6,0,0,1-4.61,4.6,4.54,4.54,0,0,1-4.61-4.6,4.6,4.6,0,0,1,4.61-4.6m0-29.89a4.66,4.66,0,0,1,4.61,4.6,4.6,4.6,0,0,1-4.61,4.6,4.54,4.54,0,0,1-4.61-4.6,4.6,4.6,0,0,1,4.61-4.6m-15.83,41.67a4.66,4.66,0,0,1,4.61,4.6,4.6,4.6,0,0,1-4.61,4.6,4.54,4.54,0,0,1-4.6-4.6,4.6,4.6,0,0,1,4.6-4.6m0-53.36a4.67,4.67,0,0,1,4.61,4.6,4.6,4.6,0,0,1-4.61,4.6,4.54,4.54,0,0,1-4.6-4.6,4.6,4.6,0,0,1,4.6-4.6m-16.6,41.57a4.67,4.67,0,0,1,4.61,4.6,4.6,4.6,0,0,1-4.61,4.6,4.54,4.54,0,0,1-4.61-4.6,4.6,4.6,0,0,1,4.61-4.6m0-29.89a4.67,4.67,0,0,1,4.61,4.6,4.6,4.6,0,0,1-4.61,4.6,4.54,4.54,0,0,1-4.61-4.6,4.6,4.6,0,0,1,4.61-4.6m-4.7,14.94a4.67,4.67,0,0,1,4.61,4.6,4.6,4.6,0,0,1-4.61,4.6,4.54,4.54,0,0,1-4.61-4.6,4.6,4.6,0,0,1,4.61-4.6" transform="translate(-86.64 -252.41)"/><path class="cls-3" d="M504.06,411.13a4.54,4.54,0,0,1-4.61-4.6,4.6,4.6,0,0,1,4.61-4.6,4.66,4.66,0,0,1,4.6,4.6,4.6,4.6,0,0,1-4.6,4.6m0-17.63a4.6,4.6,0,0,1-4.61-4.6,4.54,4.54,0,0,1,4.61-4.6,4.6,4.6,0,0,1,4.6,4.6,4.66,4.66,0,0,1-4.6,4.6m0-17.82a4.6,4.6,0,0,1-4.61-4.6,4.54,4.54,0,0,1,4.61-4.6,4.6,4.6,0,0,1,4.6,4.6,4.66,4.66,0,0,1-4.6,4.6m0-18.11a4.55,4.55,0,1,1,4.6-4.6,4.6,4.6,0,0,1-4.6,4.6m-13.53,27a4.67,4.67,0,0,1-4.61-4.6,4.6,4.6,0,0,1,4.61-4.6,4.54,4.54,0,0,1,4.61,4.6,4.6,4.6,0,0,1-4.61,4.6M476,375.4a4.54,4.54,0,0,1,4.61,4.6,4.56,4.56,0,1,1-9.12,0,4.52,4.52,0,0,1,4.51-4.6m-13.43,26.53a4.67,4.67,0,0,1,4.61,4.6,4.6,4.6,0,0,1-4.61,4.6,4.54,4.54,0,0,1-4.61-4.6,4.6,4.6,0,0,1,4.61-4.6m0-17.63a4.6,4.6,0,0,1,4.61,4.6,4.67,4.67,0,0,1-4.61,4.6,4.6,4.6,0,0,1-4.61-4.6,4.54,4.54,0,0,1,4.61-4.6m0-17.82a4.6,4.6,0,0,1,4.61,4.6,4.67,4.67,0,0,1-4.61,4.6,4.6,4.6,0,0,1-4.61-4.6,4.54,4.54,0,0,1,4.61-4.6m0-18A4.55,4.55,0,1,1,458,353a4.52,4.52,0,0,1,4.61-4.5" transform="translate(-86.64 -252.41)"/><path class="cls-3" d="M575.44,401.93a4.67,4.67,0,0,1,4.61,4.6,4.6,4.6,0,0,1-4.61,4.6,4.54,4.54,0,0,1-4.61-4.6,4.6,4.6,0,0,1,4.61-4.6m0-53.45a4.6,4.6,0,1,1,0,9.2,4.6,4.6,0,1,1,0-9.2m-17.36,53.45a4.6,4.6,0,0,1,4.6,4.6,4.54,4.54,0,0,1-4.6,4.6,4.6,4.6,0,0,1-4.61-4.6,4.66,4.66,0,0,1,4.61-4.6m0-17.82a4.6,4.6,0,0,1,4.6,4.6,4.54,4.54,0,0,1-4.6,4.6,4.6,4.6,0,0,1-4.61-4.6,4.66,4.66,0,0,1,4.61-4.6m0-17.82a4.6,4.6,0,1,1,0,9.2,4.6,4.6,0,1,1,0-9.2m0-17.82a4.6,4.6,0,1,1,0,9.2,4.6,4.6,0,1,1,0-9.2M540.8,401.93a4.66,4.66,0,0,1,4.61,4.6,4.6,4.6,0,0,1-4.61,4.6,4.54,4.54,0,0,1-4.61-4.6,4.6,4.6,0,0,1,4.61-4.6m0-53.45a4.6,4.6,0,1,1,0,9.2,4.6,4.6,0,1,1,0-9.2" transform="translate(-86.64 -252.41)"/><path class="cls-3" d="M650.55,348.48a4.6,4.6,0,1,1-4.51,4.6,4.6,4.6,0,0,1,4.51-4.6m-17.46,53.45a4.67,4.67,0,0,1,4.61,4.6,4.6,4.6,0,0,1-4.61,4.6,4.54,4.54,0,0,1-4.61-4.6,4.6,4.6,0,0,1,4.61-4.6m0-17.82a4.67,4.67,0,0,1,4.61,4.6,4.6,4.6,0,0,1-4.61,4.6,4.54,4.54,0,0,1-4.61-4.6,4.6,4.6,0,0,1,4.61-4.6m0-17.82a4.6,4.6,0,1,1,0,9.2,4.6,4.6,0,1,1,0-9.2M633,348.48a4.6,4.6,0,1,1,0,9.2,4.6,4.6,0,1,1,0-9.2m-17.46,0a4.6,4.6,0,1,1,0,9.2,4.6,4.6,0,1,1,0-9.2" transform="translate(-86.64 -252.41)"/><path class="cls-3" d="M725.28,401.93a4.6,4.6,0,0,1,4.61,4.6,4.54,4.54,0,0,1-4.61,4.6,4.6,4.6,0,0,1-4.6-4.6,4.66,4.66,0,0,1,4.6-4.6m0-53.45a4.55,4.55,0,1,1,0,9.1,4.55,4.55,0,1,1,0-9.1m-17.56,53.45a4.6,4.6,0,0,1,4.61,4.6,4.54,4.54,0,0,1-4.61,4.6,4.6,4.6,0,0,1-4.61-4.6,4.67,4.67,0,0,1,4.61-4.6m0-26.53a4.54,4.54,0,0,1,4.61,4.6,4.6,4.6,0,0,1-4.61,4.6,4.67,4.67,0,0,1-4.61-4.6,4.6,4.6,0,0,1,4.61-4.6m0-26.92a4.55,4.55,0,1,1,0,9.1,4.55,4.55,0,1,1,0-9.1m-17.36,53.45a4.67,4.67,0,0,1,4.61,4.6,4.6,4.6,0,0,1-4.61,4.6,4.54,4.54,0,0,1-4.61-4.6,4.6,4.6,0,0,1,4.61-4.6m0-17.63a4.6,4.6,0,0,1,4.61,4.6,4.67,4.67,0,0,1-4.61,4.6,4.6,4.6,0,0,1-4.61-4.6,4.54,4.54,0,0,1,4.61-4.6m0-17.82a4.6,4.6,0,0,1,4.61,4.6,4.67,4.67,0,0,1-4.61,4.6,4.6,4.6,0,0,1-4.61-4.6,4.54,4.54,0,0,1,4.61-4.6m0-18a4.55,4.55,0,1,1-4.61,4.5,4.52,4.52,0,0,1,4.61-4.5" transform="translate(-86.64 -252.41)"/><path class="cls-3" d="M801.36,390.15a4.66,4.66,0,0,1,4.61,4.6,4.6,4.6,0,0,1-4.61,4.6,4.54,4.54,0,0,1-4.61-4.6,4.6,4.6,0,0,1,4.61-4.6m0-29.89a4.66,4.66,0,0,1,4.61,4.6,4.6,4.6,0,0,1-4.61,4.6,4.54,4.54,0,0,1-4.61-4.6,4.6,4.6,0,0,1,4.61-4.6m-15.83,41.67a4.66,4.66,0,0,1,4.61,4.6,4.6,4.6,0,0,1-4.61,4.6,4.54,4.54,0,0,1-4.6-4.6,4.6,4.6,0,0,1,4.6-4.6m0-53.36a4.66,4.66,0,0,1,4.61,4.6,4.6,4.6,0,0,1-4.61,4.6,4.54,4.54,0,0,1-4.6-4.6,4.6,4.6,0,0,1,4.6-4.6m-16.6,41.57a4.67,4.67,0,0,1,4.61,4.6,4.6,4.6,0,0,1-4.61,4.6,4.54,4.54,0,0,1-4.61-4.6,4.6,4.6,0,0,1,4.61-4.6m0-29.89a4.67,4.67,0,0,1,4.61,4.6,4.6,4.6,0,0,1-4.61,4.6,4.54,4.54,0,0,1-4.61-4.6,4.6,4.6,0,0,1,4.61-4.6m-4.7,14.94a4.67,4.67,0,0,1,4.61,4.6,4.6,4.6,0,0,1-4.61,4.6,4.54,4.54,0,0,1-4.61-4.6,4.6,4.6,0,0,1,4.61-4.6" transform="translate(-86.64 -252.41)"/><path class="cls-3" d="M875,348.48a4.6,4.6,0,1,1-4.51,4.6,4.6,4.6,0,0,1,4.51-4.6m-17.46,53.45a4.67,4.67,0,0,1,4.61,4.6,4.6,4.6,0,0,1-4.61,4.6,4.54,4.54,0,0,1-4.61-4.6,4.6,4.6,0,0,1,4.61-4.6m0-17.82a4.67,4.67,0,0,1,4.61,4.6,4.6,4.6,0,0,1-4.61,4.6,4.54,4.54,0,0,1-4.61-4.6,4.6,4.6,0,0,1,4.61-4.6m0-17.82a4.6,4.6,0,1,1,0,9.2,4.6,4.6,0,1,1,0-9.2m-0.1-17.82a4.6,4.6,0,1,1,0,9.2,4.6,4.6,0,1,1,0-9.2m-17.46,0a4.6,4.6,0,1,1,0,9.2,4.6,4.6,0,1,1,0-9.2" transform="translate(-86.64 -252.41)"/><path class="cls-3" d="M952.75,392.83a4.55,4.55,0,1,1-4.51,4.5,4.52,4.52,0,0,1,4.51-4.5m0-14.85a4.54,4.54,0,0,1,4.61,4.6,4.56,4.56,0,1,1-9.12,0,4.52,4.52,0,0,1,4.51-4.6m0-14.85a4.6,4.6,0,0,1,4.61,4.6,4.56,4.56,0,1,1-4.61-4.6m0-14.66a4.55,4.55,0,1,1-4.51,4.5,4.52,4.52,0,0,1,4.51-4.5m-13.53,53.45a4.58,4.58,0,0,1,4.51,4.6,4.56,4.56,0,1,1-9.11,0,4.6,4.6,0,0,1,4.6-4.6m-13.62,0a4.67,4.67,0,0,1,4.61,4.6,4.6,4.6,0,0,1-4.61,4.6,4.54,4.54,0,0,1-4.6-4.6,4.6,4.6,0,0,1,4.6-4.6M912,392.83a4.55,4.55,0,1,1-4.61,4.5,4.52,4.52,0,0,1,4.61-4.5M912,378a4.6,4.6,0,0,1,4.61,4.6,4.67,4.67,0,0,1-4.61,4.6,4.61,4.61,0,0,1-4.61-4.6A4.54,4.54,0,0,1,912,378m0-14.85a4.67,4.67,0,0,1,4.61,4.6,4.6,4.6,0,0,1-4.61,4.6,4.54,4.54,0,0,1-4.61-4.6,4.6,4.6,0,0,1,4.61-4.6m0-14.66a4.55,4.55,0,1,1-4.61,4.5,4.52,4.52,0,0,1,4.61-4.5" transform="translate(-86.64 -252.41)"/><path class="cls-3" d="M1025.18,401.93a4.66,4.66,0,0,1,4.61,4.6,4.6,4.6,0,0,1-4.61,4.6,4.54,4.54,0,0,1-4.61-4.6,4.6,4.6,0,0,1,4.61-4.6m-4.32-30.75a4.67,4.67,0,0,1,4.61,4.6,4.6,4.6,0,0,1-4.61,4.6,4.54,4.54,0,0,1-4.6-4.6,4.6,4.6,0,0,1,4.6-4.6m0-15.9a4.55,4.55,0,1,1-4.6,4.5,4.52,4.52,0,0,1,4.6-4.5m-5.28,34.2a4.55,4.55,0,1,1-4.61,4.6,4.6,4.6,0,0,1,4.61-4.6M1005,375.21a4.61,4.61,0,0,1,4.61,4.6,4.54,4.54,0,0,1-4.61,4.6,4.6,4.6,0,0,1-4.61-4.6,4.67,4.67,0,0,1,4.61-4.6m0-26.73a4.6,4.6,0,1,1,0,9.2,4.6,4.6,0,1,1,0-9.2m-15.35,53.45a4.67,4.67,0,0,1,4.61,4.6,4.6,4.6,0,0,1-4.61,4.6,4.54,4.54,0,0,1-4.61-4.6,4.6,4.6,0,0,1,4.61-4.6m0-17.82a4.67,4.67,0,0,1,4.61,4.6,4.6,4.6,0,0,1-4.61,4.6,4.54,4.54,0,0,1-4.61-4.6,4.6,4.6,0,0,1,4.61-4.6m0-17.82a4.67,4.67,0,0,1,4.61,4.6,4.6,4.6,0,0,1-4.61,4.6,4.54,4.54,0,0,1-4.61-4.6,4.6,4.6,0,0,1,4.61-4.6m0-17.82a4.6,4.6,0,1,1,0,9.2,4.6,4.6,0,1,1,0-9.2" transform="translate(-86.64 -252.41)"/><path class="cls-3" d="M1099.43,401.93a4.6,4.6,0,0,1,4.61,4.6,4.54,4.54,0,0,1-4.61,4.6,4.6,4.6,0,0,1-4.6-4.6,4.66,4.66,0,0,1,4.6-4.6m0-53.45a4.55,4.55,0,1,1,0,9.1,4.55,4.55,0,1,1,0-9.1m-17.56,53.45a4.6,4.6,0,0,1,4.61,4.6,4.54,4.54,0,0,1-4.61,4.6,4.6,4.6,0,0,1-4.61-4.6,4.67,4.67,0,0,1,4.61-4.6m0-26.53a4.54,4.54,0,0,1,4.61,4.6,4.6,4.6,0,0,1-4.61,4.6,4.67,4.67,0,0,1-4.61-4.6,4.6,4.6,0,0,1,4.61-4.6m0-26.92a4.55,4.55,0,1,1,0,9.1,4.55,4.55,0,1,1,0-9.1m-17.37,53.45a4.67,4.67,0,0,1,4.61,4.6,4.6,4.6,0,0,1-4.61,4.6,4.54,4.54,0,0,1-4.61-4.6,4.6,4.6,0,0,1,4.61-4.6m0-17.63a4.6,4.6,0,0,1,4.61,4.6,4.67,4.67,0,0,1-4.61,4.6,4.6,4.6,0,0,1-4.61-4.6,4.54,4.54,0,0,1,4.61-4.6m0-17.82a4.6,4.6,0,0,1,4.61,4.6,4.67,4.67,0,0,1-4.61,4.6,4.6,4.6,0,0,1-4.61-4.6,4.54,4.54,0,0,1,4.61-4.6m0-18a4.55,4.55,0,1,1-4.61,4.5,4.52,4.52,0,0,1,4.61-4.5" transform="translate(-86.64 -252.41)"/><path class="cls-3" d="M389.8,485.94a4.66,4.66,0,0,1,4.61,4.6,4.6,4.6,0,0,1-4.61,4.6,4.54,4.54,0,0,1-4.61-4.6,4.6,4.6,0,0,1,4.61-4.6m0-29.89a4.66,4.66,0,0,1,4.61,4.6,4.6,4.6,0,0,1-4.61,4.6,4.54,4.54,0,0,1-4.61-4.6,4.6,4.6,0,0,1,4.61-4.6M374,497.72a4.66,4.66,0,0,1,4.61,4.6,4.6,4.6,0,0,1-4.61,4.6,4.54,4.54,0,0,1-4.6-4.6,4.6,4.6,0,0,1,4.6-4.6m0-53.36a4.67,4.67,0,0,1,4.61,4.6,4.6,4.6,0,0,1-4.61,4.6,4.54,4.54,0,0,1-4.6-4.6,4.6,4.6,0,0,1,4.6-4.6m-16.6,41.57a4.67,4.67,0,0,1,4.61,4.6,4.6,4.6,0,0,1-4.61,4.6,4.54,4.54,0,0,1-4.61-4.6,4.6,4.6,0,0,1,4.61-4.6m0-29.89a4.67,4.67,0,0,1,4.61,4.6,4.6,4.6,0,0,1-4.61,4.6,4.54,4.54,0,0,1-4.61-4.6,4.6,4.6,0,0,1,4.61-4.6M352.67,471a4.67,4.67,0,0,1,4.61,4.6,4.6,4.6,0,0,1-4.61,4.6,4.54,4.54,0,0,1-4.61-4.6,4.6,4.6,0,0,1,4.61-4.6" transform="translate(-86.64 -252.41)"/><path class="cls-3" d="M464.63,485.94a4.66,4.66,0,0,1,4.61,4.6,4.6,4.6,0,0,1-4.61,4.6,4.54,4.54,0,0,1-4.61-4.6,4.6,4.6,0,0,1,4.61-4.6m0-29.89a4.66,4.66,0,0,1,4.61,4.6,4.6,4.6,0,0,1-4.61,4.6,4.54,4.54,0,0,1-4.61-4.6,4.6,4.6,0,0,1,4.61-4.6M448.8,497.72a4.66,4.66,0,0,1,4.61,4.6,4.6,4.6,0,0,1-4.61,4.6,4.54,4.54,0,0,1-4.6-4.6,4.6,4.6,0,0,1,4.6-4.6m0-53.36a4.66,4.66,0,0,1,4.61,4.6,4.6,4.6,0,0,1-4.61,4.6,4.54,4.54,0,0,1-4.6-4.6,4.6,4.6,0,0,1,4.6-4.6m-16.6,41.57a4.67,4.67,0,0,1,4.61,4.6,4.6,4.6,0,0,1-4.61,4.6,4.54,4.54,0,0,1-4.61-4.6,4.6,4.6,0,0,1,4.61-4.6m0-29.89a4.67,4.67,0,0,1,4.61,4.6,4.6,4.6,0,0,1-4.61,4.6,4.54,4.54,0,0,1-4.61-4.6,4.6,4.6,0,0,1,4.61-4.6M427.5,471a4.67,4.67,0,0,1,4.61,4.6,4.6,4.6,0,0,1-4.61,4.6,4.54,4.54,0,0,1-4.61-4.6,4.6,4.6,0,0,1,4.61-4.6" transform="translate(-86.64 -252.41)"/><path class="cls-3" d="M538,497.72a4.67,4.67,0,0,1,4.61,4.6,4.6,4.6,0,0,1-4.61,4.6,4.54,4.54,0,0,1-4.61-4.6,4.6,4.6,0,0,1,4.61-4.6m0-53.45a4.6,4.6,0,1,1,0,9.2,4.6,4.6,0,1,1,0-9.2m-17.37,53.45a4.6,4.6,0,0,1,4.6,4.6,4.54,4.54,0,0,1-4.6,4.6,4.6,4.6,0,0,1-4.61-4.6,4.66,4.66,0,0,1,4.61-4.6m0-17.82a4.6,4.6,0,0,1,4.6,4.6,4.54,4.54,0,0,1-4.6,4.6,4.6,4.6,0,0,1-4.61-4.6,4.67,4.67,0,0,1,4.61-4.6m0-17.82a4.6,4.6,0,1,1,0,9.2,4.6,4.6,0,1,1,0-9.2m0-17.82a4.6,4.6,0,1,1,0,9.2,4.6,4.6,0,1,1,0-9.2m-17.27,53.45a4.66,4.66,0,0,1,4.61,4.6,4.6,4.6,0,0,1-4.61,4.6,4.54,4.54,0,0,1-4.61-4.6,4.6,4.6,0,0,1,4.61-4.6m0-53.45a4.6,4.6,0,1,1,0,9.2,4.6,4.6,0,1,1,0-9.2" transform="translate(-86.64 -252.41)"/><path class="cls-3" d="M613.14,444.27a4.6,4.6,0,1,1-4.51,4.6,4.6,4.6,0,0,1,4.51-4.6m-17.46,53.45a4.67,4.67,0,0,1,4.61,4.6,4.6,4.6,0,0,1-4.61,4.6,4.54,4.54,0,0,1-4.61-4.6,4.6,4.6,0,0,1,4.61-4.6m0-17.82a4.67,4.67,0,0,1,4.61,4.6,4.6,4.6,0,0,1-4.61,4.6,4.54,4.54,0,0,1-4.61-4.6,4.6,4.6,0,0,1,4.61-4.6m0-17.82a4.6,4.6,0,1,1,0,9.2,4.6,4.6,0,1,1,0-9.2m-0.1-17.82a4.6,4.6,0,1,1,0,9.2,4.6,4.6,0,1,1,0-9.2m-17.46,0a4.6,4.6,0,1,1,0,9.2,4.6,4.6,0,1,1,0-9.2" transform="translate(-86.64 -252.41)"/><path class="cls-3" d="M693.24,497.72a4.6,4.6,0,0,1,4.61,4.6,4.54,4.54,0,0,1-4.61,4.6,4.6,4.6,0,0,1-4.6-4.6,4.66,4.66,0,0,1,4.6-4.6m-7.58-17.91a4.6,4.6,0,1,1,0,9.2,4.6,4.6,0,1,1,0-9.2M678,461.89a4.54,4.54,0,0,1,4.61,4.6,4.56,4.56,0,1,1-9.11,0,4.52,4.52,0,0,1,4.51-4.6m-7.58,26.92a4.54,4.54,0,0,1,4.61,4.6,4.56,4.56,0,1,1-9.12,0,4.52,4.52,0,0,1,4.51-4.6m0-44.83a4.54,4.54,0,0,1,4.61,4.6,4.56,4.56,0,1,1-9.12,0,4.52,4.52,0,0,1,4.51-4.6m-7.58,17.91a4.52,4.52,0,0,1,4.51,4.6,4.56,4.56,0,1,1-4.51-4.6m-7.67,17.91a4.6,4.6,0,1,1,0,9.2,4.6,4.6,0,1,1,0-9.2m-7.58,17.91a4.67,4.67,0,0,1,4.61,4.6,4.6,4.6,0,0,1-4.61,4.6,4.54,4.54,0,0,1-4.61-4.6,4.6,4.6,0,0,1,4.61-4.6" transform="translate(-86.64 -252.41)"/><path class="cls-3" d="M763.18,497.72a4.6,4.6,0,0,1,4.6,4.6,4.56,4.56,0,1,1-4.6-4.6m0-17.53a4.55,4.55,0,1,1-4.51,4.5,4.52,4.52,0,0,1,4.51-4.5m0-17.91a4.54,4.54,0,0,1,4.6,4.6,4.56,4.56,0,1,1-9.11,0,4.52,4.52,0,0,1,4.51-4.6m0-18a4.55,4.55,0,1,1-4.51,4.5,4.52,4.52,0,0,1,4.51-4.5M747,480.19a4.55,4.55,0,1,1,0,9.1,4.55,4.55,0,1,1,0-9.1m-3.26-17.91a4.6,4.6,0,0,1,4.6,4.6,4.66,4.66,0,0,1-4.6,4.6,4.6,4.6,0,0,1-4.61-4.6,4.54,4.54,0,0,1,4.61-4.6m-16.5,35.44a4.67,4.67,0,0,1,4.61,4.6,4.6,4.6,0,0,1-4.61,4.6,4.54,4.54,0,0,1-4.61-4.6,4.6,4.6,0,0,1,4.61-4.6m0-17.53a4.55,4.55,0,1,1-4.61,4.5,4.52,4.52,0,0,1,4.61-4.5m0-17.91a4.6,4.6,0,0,1,4.61,4.6,4.67,4.67,0,0,1-4.61,4.6,4.6,4.6,0,0,1-4.61-4.6,4.54,4.54,0,0,1,4.61-4.6m0-18a4.55,4.55,0,1,1-4.61,4.5,4.52,4.52,0,0,1,4.61-4.5" transform="translate(-86.64 -252.41)"/><path class="cls-3" d="M837.34,497.72a4.67,4.67,0,0,1,4.61,4.6,4.6,4.6,0,0,1-4.61,4.6,4.54,4.54,0,0,1-4.61-4.6,4.6,4.6,0,0,1,4.61-4.6m0-53.45a4.6,4.6,0,1,1,0,9.2,4.6,4.6,0,1,1,0-9.2M820,497.72a4.6,4.6,0,0,1,4.6,4.6,4.54,4.54,0,0,1-4.6,4.6,4.6,4.6,0,0,1-4.61-4.6,4.67,4.67,0,0,1,4.61-4.6m0-17.82a4.6,4.6,0,0,1,4.6,4.6,4.54,4.54,0,0,1-4.6,4.6,4.6,4.6,0,0,1-4.61-4.6,4.67,4.67,0,0,1,4.61-4.6m0-17.82a4.6,4.6,0,1,1,0,9.2,4.6,4.6,0,1,1,0-9.2m0-17.82a4.6,4.6,0,1,1,0,9.2,4.6,4.6,0,1,1,0-9.2M802.7,497.72a4.66,4.66,0,0,1,4.61,4.6,4.6,4.6,0,0,1-4.61,4.6,4.54,4.54,0,0,1-4.61-4.6,4.6,4.6,0,0,1,4.61-4.6m0-53.45a4.6,4.6,0,1,1,0,9.2,4.6,4.6,0,1,1,0-9.2" transform="translate(-86.64 -252.41)"/><path class="cls-3" d="M912.36,497.72a4.6,4.6,0,0,1,4.61,4.6,4.54,4.54,0,0,1-4.61,4.6,4.6,4.6,0,0,1-4.6-4.6,4.66,4.66,0,0,1,4.6-4.6m0-53.45a4.55,4.55,0,1,1,0,9.1,4.55,4.55,0,1,1,0-9.1M894.8,497.72a4.6,4.6,0,0,1,4.61,4.6,4.54,4.54,0,0,1-4.61,4.6,4.6,4.6,0,0,1-4.61-4.6,4.67,4.67,0,0,1,4.61-4.6m0-26.53a4.54,4.54,0,0,1,4.61,4.6,4.6,4.6,0,0,1-4.61,4.6,4.67,4.67,0,0,1-4.61-4.6,4.6,4.6,0,0,1,4.61-4.6m0-26.92a4.55,4.55,0,1,1,0,9.1,4.55,4.55,0,1,1,0-9.1m-17.36,53.45a4.67,4.67,0,0,1,4.61,4.6,4.6,4.6,0,0,1-4.61,4.6,4.54,4.54,0,0,1-4.61-4.6,4.6,4.6,0,0,1,4.61-4.6m0-17.63a4.6,4.6,0,0,1,4.61,4.6,4.67,4.67,0,0,1-4.61,4.6,4.6,4.6,0,0,1-4.61-4.6,4.54,4.54,0,0,1,4.61-4.6m0-17.82a4.6,4.6,0,0,1,4.61,4.6,4.67,4.67,0,0,1-4.61,4.6,4.6,4.6,0,0,1-4.61-4.6,4.54,4.54,0,0,1,4.61-4.6m0-18a4.55,4.55,0,1,1-4.61,4.5,4.52,4.52,0,0,1,4.61-4.5" transform="translate(-86.64 -252.41)"/><path class="cls-3" d="M573.81,562.76a4.66,4.66,0,0,1,4.6,4.6,4.6,4.6,0,0,1-4.6,4.6,4.54,4.54,0,0,1-4.61-4.6,4.6,4.6,0,0,1,4.61-4.6m0-15.9a4.55,4.55,0,1,1-4.61,4.5,4.52,4.52,0,0,1,4.61-4.5M558,566.78a4.6,4.6,0,0,1,4.61,4.6A4.54,4.54,0,0,1,558,576a4.6,4.6,0,0,1-4.61-4.6,4.67,4.67,0,0,1,4.61-4.6m0-26.73a4.6,4.6,0,1,1,0,9.2,4.6,4.6,0,1,1,0-9.2M542.62,593.5a4.66,4.66,0,0,1,4.61,4.6,4.6,4.6,0,0,1-4.61,4.6,4.54,4.54,0,0,1-4.61-4.6,4.6,4.6,0,0,1,4.61-4.6m0-17.82a4.66,4.66,0,0,1,4.61,4.6,4.6,4.6,0,0,1-4.61,4.6,4.54,4.54,0,0,1-4.61-4.6,4.6,4.6,0,0,1,4.61-4.6m0-17.82a4.67,4.67,0,0,1,4.61,4.6,4.6,4.6,0,0,1-4.61,4.6,4.54,4.54,0,0,1-4.61-4.6,4.6,4.6,0,0,1,4.61-4.6m0-17.82a4.6,4.6,0,1,1,0,9.2,4.6,4.6,0,1,1,0-9.2" transform="translate(-86.64 -252.41)"/><path class="cls-3" d="M651.61,540.05a4.6,4.6,0,0,1,4.61,4.6,4.67,4.67,0,0,1-4.61,4.6,4.6,4.6,0,0,1-4.61-4.6,4.54,4.54,0,0,1,4.61-4.6m-7.29,13.51a4.55,4.55,0,1,1-4.51,4.5,4.52,4.52,0,0,1,4.51-4.5M633,593.5a4.6,4.6,0,0,1,4.61,4.6,4.54,4.54,0,0,1-4.61,4.6,4.6,4.6,0,0,1-4.61-4.6,4.67,4.67,0,0,1,4.61-4.6m0-13.41a4.55,4.55,0,1,1-4.61,4.6,4.61,4.61,0,0,1,4.61-4.6m0-13.51a4.6,4.6,0,1,1,0,9.2,4.6,4.6,0,1,1,0-9.2m-10.94-13a4.55,4.55,0,1,1-4.61,4.5,4.58,4.58,0,0,1,4.61-4.5m-7.68-13.51a4.6,4.6,0,0,1,4.61,4.6,4.67,4.67,0,0,1-4.61,4.6,4.6,4.6,0,0,1-4.61-4.6,4.54,4.54,0,0,1,4.61-4.6" transform="translate(-86.64 -252.41)"/><path class="cls-3" d="M725.86,593.5a4.66,4.66,0,0,1,4.61,4.6,4.6,4.6,0,0,1-4.61,4.6,4.54,4.54,0,0,1-4.61-4.6,4.6,4.6,0,0,1,4.61-4.6m-4.32-30.75a4.66,4.66,0,0,1,4.61,4.6,4.6,4.6,0,0,1-4.61,4.6,4.54,4.54,0,0,1-4.6-4.6,4.6,4.6,0,0,1,4.6-4.6m0-15.9a4.55,4.55,0,1,1-4.6,4.5,4.52,4.52,0,0,1,4.6-4.5m-5.28,34.2a4.55,4.55,0,1,1-4.61,4.6,4.61,4.61,0,0,1,4.61-4.6m-10.55-14.27a4.6,4.6,0,0,1,4.6,4.6,4.54,4.54,0,0,1-4.6,4.6,4.6,4.6,0,0,1-4.61-4.6,4.66,4.66,0,0,1,4.61-4.6m0-26.73a4.6,4.6,0,1,1,0,9.2,4.6,4.6,0,1,1,0-9.2M690.36,593.5a4.67,4.67,0,0,1,4.61,4.6,4.6,4.6,0,0,1-4.61,4.6,4.54,4.54,0,0,1-4.61-4.6,4.6,4.6,0,0,1,4.61-4.6m0-17.82a4.67,4.67,0,0,1,4.61,4.6,4.6,4.6,0,0,1-4.61,4.6,4.54,4.54,0,0,1-4.61-4.6,4.6,4.6,0,0,1,4.61-4.6m0-17.82a4.67,4.67,0,0,1,4.61,4.6,4.6,4.6,0,0,1-4.61,4.6,4.54,4.54,0,0,1-4.61-4.6,4.6,4.6,0,0,1,4.61-4.6m0-17.82a4.6,4.6,0,1,1,0,9.2,4.6,4.6,0,1,1,0-9.2" transform="translate(-86.64 -252.41)"/><path class="cls-3" d="M800.11,593.5a4.6,4.6,0,0,1,4.61,4.6,4.54,4.54,0,0,1-4.61,4.6,4.6,4.6,0,0,1-4.6-4.6,4.66,4.66,0,0,1,4.6-4.6m0-53.45a4.55,4.55,0,1,1,0,9.1,4.55,4.55,0,1,1,0-9.1m-10.65-16.48a4.6,4.6,0,1,1,4.6-4.6,4.62,4.62,0,0,1-4.6,4.6m-6.91,69.93a4.6,4.6,0,0,1,4.61,4.6,4.54,4.54,0,0,1-4.61,4.6,4.6,4.6,0,0,1-4.61-4.6,4.67,4.67,0,0,1,4.61-4.6m0-26.53a4.54,4.54,0,0,1,4.61,4.6,4.6,4.6,0,0,1-4.61,4.6,4.67,4.67,0,0,1-4.61-4.6,4.6,4.6,0,0,1,4.61-4.6m0-26.92a4.55,4.55,0,1,1,0,9.1,4.55,4.55,0,1,1,0-9.1m-6.72-7.47a4.6,4.6,0,1,1,4.61-4.6,4.62,4.62,0,0,1-4.61,4.6M765.19,593.5a4.67,4.67,0,0,1,4.61,4.6,4.6,4.6,0,0,1-4.61,4.6,4.54,4.54,0,0,1-4.61-4.6,4.6,4.6,0,0,1,4.61-4.6m0-17.63a4.6,4.6,0,0,1,4.61,4.6,4.67,4.67,0,0,1-4.61,4.6,4.6,4.6,0,0,1-4.61-4.6,4.54,4.54,0,0,1,4.61-4.6m0-17.82a4.6,4.6,0,0,1,4.61,4.6,4.67,4.67,0,0,1-4.61,4.6,4.6,4.6,0,0,1-4.61-4.6,4.54,4.54,0,0,1,4.61-4.6m0-18a4.55,4.55,0,1,1-4.61,4.5,4.52,4.52,0,0,1,4.61-4.5" transform="translate(-86.64 -252.41)"/><path class="cls-3" d="M875.42,593.5a4.6,4.6,0,0,1,4.6,4.6,4.56,4.56,0,1,1-4.6-4.6m0-17.53a4.55,4.55,0,1,1-4.51,4.5,4.52,4.52,0,0,1,4.51-4.5m0-17.91a4.54,4.54,0,0,1,4.6,4.6,4.56,4.56,0,1,1-9.11,0,4.52,4.52,0,0,1,4.51-4.6m0-18a4.55,4.55,0,1,1-4.51,4.5,4.52,4.52,0,0,1,4.51-4.5M859.21,576a4.55,4.55,0,1,1,0,9.1,4.55,4.55,0,1,1,0-9.1m-3.26-17.91a4.6,4.6,0,0,1,4.6,4.6,4.66,4.66,0,0,1-4.6,4.6,4.6,4.6,0,0,1-4.61-4.6,4.54,4.54,0,0,1,4.61-4.6m-16.5,35.44a4.67,4.67,0,0,1,4.61,4.6,4.6,4.6,0,0,1-4.61,4.6,4.54,4.54,0,0,1-4.61-4.6,4.6,4.6,0,0,1,4.61-4.6m0-17.53a4.55,4.55,0,1,1-4.61,4.5,4.52,4.52,0,0,1,4.61-4.5m0-17.91a4.6,4.6,0,0,1,4.61,4.6,4.67,4.67,0,0,1-4.61,4.6,4.6,4.6,0,0,1-4.61-4.6,4.54,4.54,0,0,1,4.61-4.6m0-18a4.55,4.55,0,1,1-4.61,4.5,4.52,4.52,0,0,1,4.61-4.5" transform="translate(-86.64 -252.41)"/><path class="cls-3" d="M949.77,593.5a4.6,4.6,0,0,1,4.61,4.6,4.54,4.54,0,0,1-4.61,4.6,4.6,4.6,0,0,1-4.6-4.6,4.66,4.66,0,0,1,4.6-4.6m0-53.45a4.55,4.55,0,1,1,0,9.1,4.55,4.55,0,1,1,0-9.1m-10.65-16.48a4.6,4.6,0,1,1,4.6-4.6,4.62,4.62,0,0,1-4.6,4.6m-6.91,69.93a4.6,4.6,0,0,1,4.61,4.6,4.54,4.54,0,0,1-4.61,4.6,4.6,4.6,0,0,1-4.61-4.6,4.67,4.67,0,0,1,4.61-4.6m0-26.53a4.54,4.54,0,0,1,4.61,4.6,4.6,4.6,0,0,1-4.61,4.6,4.67,4.67,0,0,1-4.61-4.6,4.6,4.6,0,0,1,4.61-4.6m0-26.92a4.55,4.55,0,1,1,0,9.1,4.55,4.55,0,1,1,0-9.1m-6.72-7.47a4.6,4.6,0,1,1,4.61-4.6,4.62,4.62,0,0,1-4.61,4.6M914.85,593.5a4.67,4.67,0,0,1,4.61,4.6,4.6,4.6,0,0,1-4.61,4.6,4.54,4.54,0,0,1-4.61-4.6,4.6,4.6,0,0,1,4.61-4.6m0-17.63a4.6,4.6,0,0,1,4.61,4.6,4.67,4.67,0,0,1-4.61,4.6,4.6,4.6,0,0,1-4.61-4.6,4.54,4.54,0,0,1,4.61-4.6m0-17.82a4.6,4.6,0,0,1,4.61,4.6,4.67,4.67,0,0,1-4.61,4.6,4.6,4.6,0,0,1-4.61-4.6,4.54,4.54,0,0,1,4.61-4.6m0-18a4.55,4.55,0,1,1-4.61,4.5,4.52,4.52,0,0,1,4.61-4.5" transform="translate(-86.64 -252.41)"/><path class="cls-3" d="M1024.6,593.5a4.6,4.6,0,0,1,4.61,4.6,4.54,4.54,0,0,1-4.61,4.6,4.6,4.6,0,0,1-4.6-4.6,4.66,4.66,0,0,1,4.6-4.6m0-53.45a4.55,4.55,0,1,1,0,9.1,4.55,4.55,0,1,1,0-9.1M1007,593.5a4.6,4.6,0,0,1,4.61,4.6,4.54,4.54,0,0,1-4.61,4.6,4.6,4.6,0,0,1-4.61-4.6,4.67,4.67,0,0,1,4.61-4.6m0-26.53a4.54,4.54,0,0,1,4.61,4.6,4.6,4.6,0,0,1-4.61,4.6,4.67,4.67,0,0,1-4.61-4.6A4.6,4.6,0,0,1,1007,567m0-26.92a4.55,4.55,0,1,1,0,9.1,4.55,4.55,0,1,1,0-9.1M989.68,593.5a4.67,4.67,0,0,1,4.61,4.6,4.6,4.6,0,0,1-4.61,4.6,4.54,4.54,0,0,1-4.61-4.6,4.6,4.6,0,0,1,4.61-4.6m0-17.63a4.6,4.6,0,0,1,4.61,4.6,4.67,4.67,0,0,1-4.61,4.6,4.6,4.6,0,0,1-4.61-4.6,4.54,4.54,0,0,1,4.61-4.6m0-17.82a4.6,4.6,0,0,1,4.61,4.6,4.67,4.67,0,0,1-4.61,4.6,4.6,4.6,0,0,1-4.61-4.6,4.54,4.54,0,0,1,4.61-4.6m0-18a4.55,4.55,0,1,1-4.61,4.5,4.52,4.52,0,0,1,4.61-4.5" transform="translate(-86.64 -252.41)"/><path class="cls-3" d="M1099.24,586.9a4.6,4.6,0,0,1,4.61,4.6,4.54,4.54,0,0,1-4.61,4.6,4.6,4.6,0,0,1-4.61-4.6,4.67,4.67,0,0,1,4.61-4.6m0-15.71a4.54,4.54,0,0,1,4.61,4.6,4.6,4.6,0,0,1-4.61,4.6,4.67,4.67,0,0,1-4.61-4.6,4.6,4.6,0,0,1,4.61-4.6m0-23.95a4.6,4.6,0,0,1,4.61,4.6,4.54,4.54,0,0,1-4.61,4.6,4.6,4.6,0,0,1-4.61-4.6,4.67,4.67,0,0,1,4.61-4.6m-17.18,46.27a4.66,4.66,0,0,1,4.61,4.6,4.6,4.6,0,0,1-4.61,4.6,4.54,4.54,0,0,1-4.6-4.6,4.6,4.6,0,0,1,4.6-4.6m0-26.44a4.55,4.55,0,1,1-4.6,4.5,4.52,4.52,0,0,1,4.6-4.5m0-27a4.6,4.6,0,0,1,4.61,4.6,4.67,4.67,0,0,1-4.61,4.6,4.6,4.6,0,0,1-4.6-4.6,4.54,4.54,0,0,1,4.6-4.6M1064.7,586.9a4.67,4.67,0,0,1,4.61,4.6,4.6,4.6,0,0,1-4.61,4.6,4.54,4.54,0,0,1-4.61-4.6,4.6,4.6,0,0,1,4.61-4.6m0-24a4.67,4.67,0,0,1,4.61,4.6,4.61,4.61,0,0,1-4.61,4.6,4.55,4.55,0,0,1-4.61-4.6,4.6,4.6,0,0,1,4.61-4.6m0-15.61a4.67,4.67,0,0,1,4.61,4.6,4.6,4.6,0,0,1-4.61,4.6,4.54,4.54,0,0,1-4.61-4.6,4.6,4.6,0,0,1,4.61-4.6" transform="translate(-86.64 -252.41)"/><path class="cls-3" d="M264.1,448.87a4.86,4.86,0,0,0-1.47-3.5,5,5,0,0,0-3.55-1.45h0a5,5,0,0,0-3.55,1.44,4.86,4.86,0,0,0-1.47,3.5,5,5,0,0,0,10,0h0Z" transform="translate(-86.64 -252.41)"/><path class="cls-3" d="M225,464.57h0a5,5,0,0,0-3.57,1.47,4.89,4.89,0,0,0,0,6.93,5,5,0,0,0,3.58,1.48h0A5,5,0,0,0,228.6,473a4.85,4.85,0,0,0,1.44-3.45h0A5,5,0,0,0,225,464.57Z" transform="translate(-86.64 -252.41)"/><path class="cls-3" d="M292.95,464.56h0a5,5,0,0,0-3.57,1.47,4.86,4.86,0,0,0-1.44,3.46,5,5,0,0,0,5,4.94h0a5,5,0,0,0,5-4.93v0A5,5,0,0,0,292.95,464.56Z" transform="translate(-86.64 -252.41)"/><path class="cls-3" d="M312.84,484.81h0a4.94,4.94,0,1,0,0,9.88h0a5,5,0,0,0,5-4.93h0A5,5,0,0,0,312.84,484.81Z" transform="translate(-86.64 -252.41)"/><path class="cls-3" d="M333.23,518.28h0a4.94,4.94,0,1,0,0,9.88h0a5,5,0,0,0,3.53-1.44,4.88,4.88,0,0,0,1.48-3.49h0A5,5,0,0,0,333.23,518.28Z" transform="translate(-86.64 -252.41)"/><path class="cls-3" d="M315.93,553.43a5,5,0,0,0-3.57-1.48h0a4.94,4.94,0,1,0,0,9.88h0a5,5,0,0,0,3.57-1.47,4.86,4.86,0,0,0,1.44-3.46h0A4.86,4.86,0,0,0,315.93,553.43Z" transform="translate(-86.64 -252.41)"/><path class="cls-3" d="M297.29,576.94a5,5,0,1,0-5,4.94,5,5,0,0,0,5-4.94h0Z" transform="translate(-86.64 -252.41)"/><path class="cls-3" d="M261.88,594.57a4.93,4.93,0,1,0,1.43,3.47h0A4.86,4.86,0,0,0,261.88,594.57Z" transform="translate(-86.64 -252.41)"/><path class="cls-3" d="M224.72,572a4.94,4.94,0,1,0,5,5h0A5,5,0,0,0,224.72,572Z" transform="translate(-86.64 -252.41)"/><path class="cls-3" d="M205.51,552.2a4.94,4.94,0,1,0,5,4.95h0A5,5,0,0,0,205.51,552.2Z" transform="translate(-86.64 -252.41)"/><path class="cls-3" d="M189.17,523.16a4.84,4.84,0,0,0-1.42-3.28,5,5,0,0,0-8.62,3.45,5,5,0,0,0,10.05,0v-0.18h0Z" transform="translate(-86.64 -252.41)"/><path class="cls-3" d="M205.28,494.69h0a5,5,0,0,0,5-4.93v0A5,5,0,1,0,205.28,494.69Z" transform="translate(-86.64 -252.41)"/></g></g></g></svg>